<?xml version="1.0" encoding="UTF-8"?>
<!DOCTYPE svg PUBLIC "-//W3C//DTD SVG 1.1//EN" "http://www.w3.org/Graphics/SVG/1.1/DTD/svg11.dtd">
<!-- Creator: CorelDRAW 2021 (64-Bit) -->
<svg xmlns="http://www.w3.org/2000/svg" xml:space="preserve" width="305px" height="305px" version="1.1" style="shape-rendering:geometricPrecision; text-rendering:geometricPrecision; image-rendering:optimizeQuality; fill-rule:evenodd; clip-rule:evenodd"
viewBox="0 0 311.16 311.16"
 xmlns:xlink="http://www.w3.org/1999/xlink"
 xmlns:xodm="http://www.corel.com/coreldraw/odm/2003">
 <defs>
  <style type="text/css">
   <![CDATA[
    .fil0 {fill:#058381}
    .fil1 {fill:#068381}
    .fil2 {fill:#078380}
    .fil3 {fill:#078480}
    .fil4 {fill:#088480}
    .fil5 {fill:#098480}
    .fil6 {fill:#0A847F}
    .fil7 {fill:#0B847F}
    .fil8 {fill:#0C847F}
    .fil9 {fill:#0C857F}
    .fil10 {fill:#0D857E}
    .fil11 {fill:#0E857E}
    .fil12 {fill:#0F857E}
    .fil13 {fill:#10857D}
    .fil14 {fill:#10867D}
    .fil15 {fill:#11867D}
    .fil16 {fill:#12867D}
    .fil17 {fill:#13867C}
    .fil18 {fill:#14867C}
    .fil19 {fill:#15877C}
    .fil20 {fill:#16877B}
    .fil21 {fill:#17877B}
    .fil22 {fill:#18877B}
    .fil23 {fill:#19887A}
    .fil24 {fill:#1A887A}
    .fil25 {fill:#1B887A}
    .fil26 {fill:#1C8879}
    .fil27 {fill:#1D8879}
    .fil28 {fill:#1D8979}
    .fil29 {fill:#1E8978}
    .fil30 {fill:#1F8978}
    .fil31 {fill:#208978}
    .fil32 {fill:#218977}
    .fil33 {fill:#228A77}
    .fil34 {fill:#238A77}
    .fil35 {fill:#248A76}
    .fil36 {fill:#258A76}
    .fil37 {fill:#268B76}
    .fil38 {fill:#288B75}
    .fil39 {fill:#298B75}
    .fil40 {fill:#2A8B75}
    .fil41 {fill:#2B8C74}
    .fil42 {fill:#2C8C74}
    .fil43 {fill:#2D8C73}
    .fil44 {fill:#2E8C73}
    .fil45 {fill:#2F8D73}
    .fil46 {fill:#308D72}
    .fil47 {fill:#328D72}
    .fil48 {fill:#338D71}
    .fil49 {fill:#348E71}
    .fil50 {fill:#358E71}
    .fil51 {fill:#368E70}
    .fil52 {fill:#388E70}
    .fil53 {fill:#398F6F}
    .fil54 {fill:#3A8F6F}
    .fil55 {fill:#3B8F6F}
    .fil56 {fill:#3D906E}
    .fil57 {fill:#3E906E}
    .fil58 {fill:#3F906D}
    .fil59 {fill:#40906D}
    .fil60 {fill:#42916C}
    .fil61 {fill:#43916C}
    .fil62 {fill:#44916C}
    .fil63 {fill:#46926B}
    .fil64 {fill:#47926B}
    .fil65 {fill:#48926A}
    .fil66 {fill:#4A926A}
    .fil67 {fill:#4B9369}
    .fil68 {fill:#4C9369}
    .fil69 {fill:#4E9368}
    .fil70 {fill:#4F9468}
    .fil71 {fill:#509467}
    .fil72 {fill:#529467}
    .fil73 {fill:#539567}
    .fil74 {fill:#559566}
    .fil75 {fill:#569566}
    .fil76 {fill:#579665}
    .fil77 {fill:#599665}
    .fil78 {fill:#5A9664}
    .fil79 {fill:#5C9764}
    .fil80 {fill:#5D9763}
    .fil81 {fill:#5E9763}
    .fil82 {fill:#609762}
    .fil83 {fill:#619862}
    .fil84 {fill:#639861}
    .fil85 {fill:#649861}
    .fil86 {fill:#659960}
    .fil87 {fill:#679960}
    .fil88 {fill:#68995F}
    .fil89 {fill:#6A9A5F}
    .fil90 {fill:#6B9A5E}
    .fil91 {fill:#6D9A5E}
    .fil92 {fill:#6E9B5D}
    .fil93 {fill:#709B5D}
    .fil94 {fill:#719B5C}
    .fil95 {fill:#729C5C}
    .fil96 {fill:#749C5B}
    .fil97 {fill:#759C5B}
    .fil98 {fill:#779D5A}
    .fil99 {fill:#789D5A}
    .fil100 {fill:#7A9D59}
    .fil101 {fill:#7B9E59}
    .fil102 {fill:#7D9E58}
    .fil103 {fill:#7E9E58}
    .fil104 {fill:#809F57}
    .fil105 {fill:#819F57}
    .fil106 {fill:#839F56}
    .fil107 {fill:#84A056}
    .fil108 {fill:#85A055}
    .fil109 {fill:#87A055}
    .fil110 {fill:#88A155}
    .fil111 {fill:#8AA154}
    .fil112 {fill:#8BA154}
    .fil113 {fill:#8DA253}
    .fil114 {fill:#8EA253}
    .fil115 {fill:#90A252}
    .fil116 {fill:#91A352}
    .fil117 {fill:#93A351}
    .fil118 {fill:#94A351}
    .fil119 {fill:#95A450}
    .fil120 {fill:#97A450}
    .fil121 {fill:#98A44F}
    .fil122 {fill:#9AA54F}
    .fil123 {fill:#9BA54E}
    .fil124 {fill:#9DA54E}
    .fil125 {fill:#9EA64D}
    .fil126 {fill:#9FA64D}
    .fil127 {fill:#A1A64C}
    .fil128 {fill:#A2A64C}
    .fil129 {fill:#A4A74B}
    .fil130 {fill:#A5A74B}
    .fil131 {fill:#A6A74A}
    .fil132 {fill:#A8A84A}
    .fil133 {fill:#A9A849}
    .fil134 {fill:#AAA849}
    .fil135 {fill:#ACA948}
    .fil136 {fill:#ADA948}
    .fil137 {fill:#AFA948}
    .fil138 {fill:#B0AA47}
    .fil139 {fill:#B1AA47}
    .fil140 {fill:#B3AA46}
    .fil141 {fill:#B4AB46}
    .fil142 {fill:#B5AB45}
    .fil143 {fill:#B7AB45}
    .fil144 {fill:#B8AB44}
    .fil145 {fill:#B9AC44}
    .fil146 {fill:#BAAC44}
    .fil147 {fill:#BCAC43}
    .fil148 {fill:#BDAD43}
    .fil149 {fill:#BEAD42}
    .fil150 {fill:#C0AD42}
    .fil151 {fill:#C1AD41}
    .fil152 {fill:#C2AE41}
    .fil153 {fill:#C3AE41}
    .fil154 {fill:#C5AE40}
    .fil155 {fill:#C6AF40}
    .fil156 {fill:#C7AF3F}
    .fil157 {fill:#C8AF3F}
    .fil158 {fill:#C9AF3E}
    .fil159 {fill:#CBB03E}
    .fil160 {fill:#CCB03E}
    .fil161 {fill:#CDB03D}
    .fil162 {fill:#CEB03D}
    .fil163 {fill:#CFB13C}
   ]]>
  </style>
    <clipPath id="id0">
     <path d="M155.58 0c85.92,0 155.58,69.66 155.58,155.58 0,85.92 -69.66,155.58 -155.58,155.58 -85.92,0 -155.58,-69.66 -155.58,-155.58 0,-85.92 69.66,-155.58 155.58,-155.58zm0 47.27c31,0 56.13,25.13 56.13,56.14 0,31 -25.13,56.13 -56.13,56.13 -31,0 -56.14,-25.13 -56.14,-56.13 0,-31.01 25.14,-56.14 56.14,-56.14zm-1.89 131.48c45.14,0 83.15,30.46 94.63,71.94 -0.74,0.72 -1.49,1.43 -2.25,2.14 26.06,-24.26 42.36,-58.85 42.36,-97.25 0,-73.37 -59.48,-132.85 -132.85,-132.85 -73.37,0 -132.85,59.48 -132.85,132.85 0,35.8 14.16,68.29 37.19,92.18 12.42,-39.98 49.71,-69.01 93.77,-69.01zm92.34 74.12c-0.75,0.69 -1.5,1.38 -2.26,2.06 0.76,-0.68 1.51,-1.37 2.26,-2.06zm-2.34 2.12c-1.54,1.37 -3.11,2.7 -4.71,3.99 1.6,-1.29 3.17,-2.62 4.71,-3.99zm-4.8 4.07c-1.61,1.29 -3.25,2.55 -4.91,3.77 1.66,-1.22 3.3,-2.48 4.91,-3.77zm-4.95 3.8c-0.82,0.6 -1.65,1.19 -2.48,1.77 0.83,-0.58 1.66,-1.17 2.48,-1.77zm-2.69 1.91c-0.74,0.52 -1.5,1.03 -2.26,1.54 0.76,-0.51 1.52,-1.02 2.26,-1.54zm-2.9 1.96c-0.69,0.46 -1.39,0.9 -2.09,1.34 0.7,-0.44 1.4,-0.88 2.09,-1.34zm-2.5 1.6c-0.75,0.47 -1.5,0.93 -2.26,1.39 0.76,-0.46 1.51,-0.92 2.26,-1.39zm-2.83 1.72c-0.69,0.41 -1.38,0.81 -2.07,1.2 0.69,-0.39 1.38,-0.79 2.07,-1.2zm-3.32 1.9c-0.5,0.28 -1,0.55 -1.5,0.81 0.5,-0.26 1,-0.53 1.5,-0.81zm-4.3 2.27c-0.55,0.28 -1.11,0.56 -1.67,0.83l-1.23 0.59 2.9 -1.42zm-143.72 -15.64c-0.46,-0.37 -0.91,-0.75 -1.37,-1.13 0.46,0.38 0.91,0.76 1.37,1.13zm144.87 15.05l-1.15 0.59 1.15 -0.59z"/>
    </clipPath>
 </defs>
 <g id="Layer_x0020_1">
  <metadata id="CorelCorpID_0Corel-Layer"/>
  <g>
   <g style="clip-path:url(#id0)">
    <path class="fil0" d="M304.92 152.77c-1.55,0 -2.81,1.27 -2.8,2.82 0.01,1.55 1.27,2.81 2.83,2.8 1.55,-0.01 2.8,-1.27 2.8,-2.82 -0.01,-1.56 -1.28,-2.81 -2.83,-2.8z"/>
    <path id="_1" class="fil0" d="M304.93 153.7c1.03,0 1.87,0.83 1.88,1.87 0,1.04 -0.83,1.88 -1.87,1.88 -1.03,0.01 -1.88,-0.83 -1.88,-1.86 -0.01,-1.04 0.83,-1.88 1.87,-1.89zm-0.02 -2.81c-2.59,0.01 -4.68,2.12 -4.66,4.71 0.01,2.59 2.11,4.68 4.7,4.67 2.59,-0.02 4.68,-2.12 4.67,-4.71 -0.01,-2.59 -2.12,-4.68 -4.71,-4.67z"/>
    <path id="_2" class="fil0" d="M304.92 151.83c2.07,-0.01 3.75,1.66 3.76,3.73 0.01,2.07 -1.66,3.76 -3.73,3.77 -2.07,0.01 -3.76,-1.66 -3.77,-3.74 -0.01,-2.07 1.67,-3.75 3.74,-3.76zm-0.02 -2.81c-3.62,0.01 -6.54,2.96 -6.53,6.59 0.02,3.62 2.97,6.55 6.59,6.53 3.63,-0.02 6.55,-2.97 6.54,-6.59 -0.02,-3.62 -2.97,-6.55 -6.6,-6.53z"/>
    <path id="_3" class="fil0" d="M304.91 149.95c3.11,-0.01 5.63,2.5 5.65,5.6 0.01,3.11 -2.49,5.64 -5.6,5.65 -3.11,0.02 -5.64,-2.49 -5.65,-5.6 -0.02,-3.1 2.49,-5.63 5.6,-5.65zm-0.01 -2.81c-4.66,0.02 -8.42,3.82 -8.4,8.47 0.02,4.66 3.81,8.43 8.47,8.41 4.66,-0.02 8.42,-3.82 8.4,-8.48 -0.02,-4.66 -3.81,-8.42 -8.47,-8.4z"/>
    <path id="_4" class="fil0" d="M304.9 148.08c4.14,-0.02 7.52,3.32 7.53,7.47 0.02,4.14 -3.32,7.51 -7.46,7.53 -4.15,0.02 -7.52,-3.33 -7.54,-7.47 -0.01,-4.14 3.33,-7.51 7.47,-7.53zm-0.01 -2.81c-5.7,0.02 -10.29,4.66 -10.27,10.35 0.03,5.7 4.66,10.3 10.36,10.27 5.69,-0.02 10.29,-4.66 10.27,-10.36 -0.03,-5.69 -4.67,-10.29 -10.36,-10.26z"/>
    <path id="_5" class="fil0" d="M304.89 146.2c5.18,-0.02 9.4,4.16 9.42,9.34 0.02,5.18 -4.16,9.39 -9.34,9.41 -5.17,0.03 -9.39,-4.15 -9.41,-9.33 -0.02,-5.18 4.16,-9.39 9.33,-9.42zm-0.01 -2.81c-6.73,0.03 -12.16,5.51 -12.13,12.24 0.03,6.73 5.51,12.17 12.24,12.14 6.73,-0.03 12.16,-5.51 12.13,-12.24 -0.03,-6.74 -5.51,-12.17 -12.24,-12.14z"/>
    <path id="_6" class="fil0" d="M304.89 144.33c6.21,-0.03 11.27,4.99 11.29,11.2 0.03,6.21 -4.98,11.27 -11.2,11.3 -6.21,0.03 -11.27,-4.99 -11.3,-11.2 -0.02,-6.22 4.99,-11.27 11.21,-11.3zm-0.02 -2.81c-7.76,0.03 -14.03,6.35 -14,14.12 0.04,7.77 6.36,14.03 14.13,14 7.76,-0.03 14.03,-6.36 14,-14.12 -0.04,-7.77 -6.36,-14.04 -14.13,-14z"/>
    <path id="_7" class="fil1" d="M304.88 142.45c7.25,-0.03 13.15,5.82 13.18,13.07 0.03,7.25 -5.82,13.15 -13.07,13.18 -7.25,0.04 -13.15,-5.82 -13.18,-13.06 -0.03,-7.25 5.82,-13.15 13.07,-13.19zm-0.02 -2.81c-8.8,0.04 -15.9,7.21 -15.86,16.01 0.03,8.8 7.2,15.9 16,15.87 8.8,-0.04 15.91,-7.21 15.87,-16.01 -0.04,-8.8 -7.2,-15.91 -16.01,-15.87z"/>
    <path id="_8" class="fil1" d="M304.87 140.58c8.28,-0.04 15.03,6.65 15.06,14.93 0.04,8.29 -6.65,15.03 -14.93,15.07 -8.29,0.03 -15.03,-6.65 -15.07,-14.94 -0.03,-8.28 6.65,-15.03 14.94,-15.06zm-0.01 -2.81c-9.84,0.04 -17.78,8.05 -17.74,17.89 0.04,9.83 8.05,17.77 17.89,17.73 9.84,-0.04 17.78,-8.05 17.74,-17.89 -0.05,-9.84 -8.06,-17.78 -17.89,-17.73z"/>
    <path id="_9" class="fil1" d="M304.86 138.7c9.32,-0.04 16.91,7.49 16.95,16.8 0.04,9.32 -7.48,16.91 -16.8,16.95 -9.32,0.04 -16.91,-7.48 -16.95,-16.8 -0.04,-9.32 7.48,-16.91 16.8,-16.95zm-0.01 -2.81c-10.87,0.05 -19.65,8.9 -19.6,19.77 0.04,10.88 8.9,19.65 19.77,19.61 10.87,-0.05 19.65,-8.9 19.6,-19.78 -0.05,-10.87 -8.9,-19.65 -19.77,-19.6z"/>
    <path id="_10" class="fil1" d="M304.85 136.83c10.36,-0.05 18.79,8.31 18.83,18.67 0.05,10.35 -8.31,18.78 -18.67,18.83 -10.35,0.04 -18.78,-8.31 -18.83,-18.67 -0.04,-10.36 8.32,-18.79 18.67,-18.83zm-0.01 -2.81c-11.91,0.05 -21.52,9.74 -21.47,21.65 0.05,11.91 9.75,21.52 21.66,21.47 11.91,-0.05 21.52,-9.75 21.47,-21.66 -0.06,-11.9 -9.75,-21.52 -21.66,-21.46z"/>
    <path id="_11" class="fil1" d="M304.84 134.95c11.39,-0.05 20.67,9.15 20.72,20.54 0.05,11.39 -9.15,20.66 -20.54,20.71 -11.39,0.05 -20.66,-9.14 -20.71,-20.53 -0.05,-11.39 9.14,-20.67 20.53,-20.72zm-0.01 -2.81c-12.94,0.06 -23.39,10.6 -23.33,23.54 0.05,12.94 10.59,23.39 23.53,23.34 12.95,-0.06 23.4,-10.6 23.34,-23.54 -0.05,-12.95 -10.59,-23.4 -23.54,-23.34z"/>
    <path id="_12" class="fil2" d="M304.84 133.08c12.42,-0.06 22.54,9.97 22.59,22.4 0.06,12.43 -9.97,22.54 -22.4,22.6 -12.43,0.05 -22.54,-9.98 -22.6,-22.4 -0.05,-12.43 9.98,-22.55 22.41,-22.6zm-0.02 -2.81c-13.98,0.06 -25.26,11.44 -25.2,25.42 0.06,13.98 11.44,25.26 25.42,25.2 13.98,-0.06 25.27,-11.44 25.21,-25.42 -0.06,-13.98 -11.45,-25.26 -25.43,-25.2z"/>
    <path id="_13" class="fil2" d="M304.83 131.2c13.46,-0.06 24.42,10.81 24.48,24.27 0.06,13.46 -10.81,24.43 -24.27,24.48 -13.46,0.06 -24.42,-10.8 -24.48,-24.27 -0.06,-13.46 10.81,-24.42 24.27,-24.48zm-0.01 -2.81c-15.02,0.07 -27.14,12.29 -27.07,27.31 0.06,15.01 12.29,27.13 27.3,27.07 15.02,-0.07 27.14,-12.29 27.07,-27.31 -0.06,-15.02 -12.29,-27.13 -27.3,-27.07z"/>
    <path id="_14" class="fil3" d="M304.82 129.33c14.5,-0.06 26.3,11.64 26.36,26.13 0.07,14.5 -11.64,26.31 -26.13,26.37 -14.5,0.06 -26.3,-11.64 -26.37,-26.14 -0.06,-14.49 11.64,-26.3 26.14,-26.36zm-0.01 -2.81c-16.05,0.07 -29.01,13.13 -28.94,29.19 0.07,16.04 13.14,29 29.19,28.93 16.05,-0.07 29.01,-13.14 28.94,-29.19 -0.07,-16.05 -13.14,-29 -29.19,-28.93z"/>
    <path id="_15" class="fil4" d="M304.81 127.45c15.53,-0.06 28.18,12.47 28.25,28.01 0.07,15.53 -12.47,28.18 -28,28.24 -15.54,0.07 -28.18,-12.47 -28.25,-28 -0.07,-15.53 12.47,-28.18 28,-28.25zm-0.01 -2.81c-17.09,0.08 -30.88,13.99 -30.8,31.07 0.07,17.09 13.98,30.88 31.07,30.81 17.08,-0.08 30.88,-13.99 30.8,-31.08 -0.07,-17.08 -13.98,-30.87 -31.07,-30.8z"/>
    <path id="_16" class="fil4" d="M304.8 125.58c16.57,-0.07 30.06,13.3 30.13,29.87 0.08,16.57 -13.3,30.06 -29.87,30.13 -16.56,0.07 -30.05,-13.3 -30.13,-29.87 -0.07,-16.57 13.3,-30.06 29.87,-30.13zm-0.01 -2.81c-18.12,0.07 -32.75,14.83 -32.67,32.95 0.08,18.12 14.83,32.75 32.96,32.67 18.12,-0.08 32.74,-14.83 32.67,-32.95 -0.08,-18.13 -14.84,-32.75 -32.96,-32.67z"/>
    <path id="_17" class="fil4" d="M304.79 123.7c17.61,-0.07 31.94,14.14 32.02,31.74 0.08,17.6 -14.13,31.94 -31.74,32.01 -17.6,0.08 -31.93,-14.13 -32.01,-31.73 -0.08,-17.61 14.13,-31.94 31.73,-32.02zm-0.01 -2.81c-19.15,0.08 -34.62,15.68 -34.53,34.84 0.08,19.16 15.68,34.62 34.83,34.54 19.16,-0.09 34.62,-15.68 34.54,-34.84 -0.08,-19.16 -15.68,-34.62 -34.84,-34.54z"/>
    <path id="_18" class="fil5" d="M304.79 121.83c18.64,-0.08 33.81,14.96 33.89,33.6 0.08,18.64 -14.96,33.82 -33.6,33.9 -18.64,0.08 -33.82,-14.97 -33.9,-33.61 -0.08,-18.63 14.97,-33.81 33.61,-33.89zm-0.02 -2.81c-20.19,0.08 -36.49,16.52 -36.4,36.72 0.09,20.19 16.53,36.49 36.72,36.4 20.2,-0.09 36.49,-16.53 36.41,-36.72 -0.09,-20.19 -16.53,-36.49 -36.73,-36.4z"/>
    <path id="_19" class="fil5" d="M304.78 119.95c19.67,-0.08 35.69,15.8 35.78,35.47 0.08,19.68 -15.8,35.7 -35.47,35.78 -19.68,0.09 -35.7,-15.79 -35.78,-35.47 -0.09,-19.67 15.79,-35.69 35.47,-35.78zm-0.01 -2.81c-21.23,0.09 -38.37,17.38 -38.27,38.6 0.09,21.23 17.37,38.37 38.6,38.27 21.23,-0.09 38.36,-17.37 38.27,-38.6 -0.09,-21.23 -17.38,-38.36 -38.6,-38.27z"/>
    <path id="_20" class="fil6" d="M304.77 118.08c20.71,-0.09 37.57,16.63 37.66,37.34 0.09,20.71 -16.62,37.57 -37.33,37.66 -20.71,0.09 -37.58,-16.63 -37.67,-37.34 -0.09,-20.71 16.63,-37.57 37.34,-37.66zm-0.01 -2.81c-22.27,0.09 -40.23,18.22 -40.14,40.48 0.1,22.27 18.22,40.24 40.49,40.14 22.26,-0.1 40.23,-18.22 40.14,-40.49 -0.1,-22.26 -18.23,-40.23 -40.49,-40.13z"/>
    <path id="_21" class="fil6" d="M304.76 116.2c21.75,-0.09 39.45,17.46 39.55,39.21 0.09,21.74 -17.46,39.45 -39.21,39.54 -21.74,0.1 -39.45,-17.46 -39.54,-39.2 -0.1,-21.75 17.46,-39.45 39.2,-39.55zm-0.01 -2.81c-23.3,0.1 -42.1,19.07 -42,42.37 0.1,23.3 19.07,42.11 42.37,42.01 23.3,-0.11 42.1,-19.08 42,-42.38 -0.1,-23.29 -19.07,-42.1 -42.37,-42z"/>
    <path id="_22" class="fil7" d="M304.76 114.33c22.78,-0.1 41.32,18.29 41.42,41.07 0.1,22.78 -18.29,41.33 -41.07,41.43 -22.78,0.1 -41.33,-18.29 -41.43,-41.07 -0.09,-22.78 18.29,-41.33 41.08,-41.43zm-0.02 -2.81c-24.33,0.1 -43.97,19.91 -43.87,44.25 0.11,24.33 19.92,43.98 44.25,43.87 24.34,-0.11 43.98,-19.92 43.88,-44.25 -0.11,-24.34 -19.92,-43.98 -44.26,-43.87z"/>
    <path id="_23" class="fil7" d="M304.75 112.45c23.81,-0.1 43.2,19.12 43.31,42.94 0.1,23.82 -19.12,43.21 -42.94,43.31 -23.82,0.11 -43.21,-19.12 -43.31,-42.93 -0.1,-23.82 19.12,-43.21 42.94,-43.32zm-0.02 -2.81c-25.37,0.11 -45.84,20.77 -45.73,46.14 0.11,25.37 20.76,45.85 46.13,45.74 25.37,-0.12 45.85,-20.77 45.74,-46.14 -0.11,-25.37 -20.77,-45.85 -46.14,-45.74z"/>
    <path id="_24" class="fil8" d="M304.74 110.58c24.85,-0.11 45.09,19.95 45.19,44.8 0.11,24.86 -19.95,45.09 -44.8,45.2 -24.85,0.11 -45.09,-19.95 -45.2,-44.81 -0.1,-24.85 19.96,-45.08 44.81,-45.19zm-0.01 -2.81c-26.41,0.11 -47.72,21.61 -47.61,48.02 0.12,26.4 21.62,47.71 48.02,47.6 26.41,-0.11 47.72,-21.61 47.61,-48.02 -0.12,-26.4 -21.62,-47.72 -48.02,-47.6z"/>
    <path id="_25" class="fil9" d="M304.73 108.7c25.89,-0.11 46.97,20.79 47.08,46.67 0.11,25.89 -20.78,46.97 -46.67,47.08 -25.89,0.12 -46.97,-20.78 -47.08,-46.67 -0.11,-25.89 20.78,-46.96 46.67,-47.08zm-0.01 -2.81c-27.44,0.12 -49.59,22.46 -49.47,49.9 0.11,27.45 22.46,49.59 49.9,49.48 27.44,-0.12 49.59,-22.47 49.47,-49.91 -0.12,-27.44 -22.46,-49.59 -49.9,-49.47z"/>
    <path id="_26" class="fil10" d="M304.72 106.83c26.93,-0.12 48.85,21.61 48.96,48.54 0.12,26.92 -21.61,48.84 -48.54,48.96 -26.92,0.11 -48.84,-21.62 -48.96,-48.54 -0.11,-26.92 21.62,-48.84 48.54,-48.96zm-0.01 -2.81c-28.48,0.12 -51.46,23.31 -51.34,51.78 0.12,28.48 23.31,51.46 51.79,51.34 28.47,-0.12 51.46,-23.31 51.34,-51.78 -0.13,-28.48 -23.31,-51.47 -51.79,-51.34z"/>
    <path id="_27" class="fil10" d="M304.71 104.95c27.96,-0.12 50.73,22.45 50.85,50.41 0.12,27.96 -22.45,50.72 -50.41,50.84 -27.96,0.12 -50.72,-22.44 -50.84,-50.4 -0.12,-27.96 22.44,-50.73 50.4,-50.85zm-0.01 -2.81c-29.51,0.13 -53.33,24.16 -53.2,53.67 0.12,29.51 24.15,53.33 53.67,53.21 29.51,-0.13 53.33,-24.16 53.2,-53.67 -0.13,-29.52 -24.16,-53.34 -53.67,-53.21z"/>
    <path id="_28" class="fil11" d="M304.71 103.08c28.99,-0.13 52.6,23.28 52.72,52.27 0.13,29 -23.27,52.6 -52.27,52.73 -28.99,0.12 -52.6,-23.28 -52.73,-52.27 -0.12,-29 23.28,-52.61 52.28,-52.73zm-0.02 -2.81c-30.54,0.13 -55.2,25 -55.07,55.55 0.13,30.55 25.01,55.2 55.55,55.07 30.55,-0.13 55.21,-25 55.08,-55.55 -0.14,-30.55 -25.01,-55.21 -55.56,-55.07z"/>
    <path id="_29" class="fil12" d="M304.7 101.2c30.03,-0.13 54.48,24.11 54.61,54.14 0.13,30.03 -24.11,54.48 -54.14,54.61 -30.03,0.13 -54.48,-24.11 -54.61,-54.14 -0.13,-30.03 24.11,-54.48 54.14,-54.61zm-0.01 -2.81c-31.59,0.14 -57.08,25.85 -56.94,57.44 0.13,31.58 25.85,57.07 57.43,56.94 31.59,-0.14 57.08,-25.86 56.94,-57.44 -0.14,-31.58 -25.85,-57.08 -57.43,-56.94z"/>
    <path id="_30" class="fil12" d="M304.69 99.33c31.07,-0.14 56.36,24.94 56.49,56 0.14,31.07 -24.94,56.36 -56,56.5 -31.07,0.13 -56.36,-24.94 -56.5,-56.01 -0.13,-31.06 24.94,-56.36 56.01,-56.49zm-0.01 -2.81c-32.62,0.14 -58.95,26.7 -58.81,59.31 0.14,32.62 26.7,58.95 59.32,58.81 32.62,-0.14 58.95,-26.7 58.81,-59.32 -0.15,-32.62 -26.7,-58.94 -59.32,-58.8z"/>
    <path id="_31" class="fil13" d="M304.68 97.45c32.1,-0.14 58.24,25.77 58.38,57.88 0.14,32.1 -25.77,58.23 -57.87,58.37 -32.11,0.14 -58.24,-25.77 -58.38,-57.87 -0.14,-32.1 25.77,-58.24 57.87,-58.38zm-0.01 -2.81c-33.66,0.15 -60.82,27.55 -60.67,61.2 0.14,33.66 27.54,60.82 61.2,60.68 33.65,-0.15 60.82,-27.55 60.67,-61.21 -0.15,-33.65 -27.55,-60.81 -61.2,-60.67z"/>
    <path id="_32" class="fil14" d="M304.67 95.58c33.14,-0.14 60.12,26.6 60.26,59.74 0.15,33.13 -26.6,60.11 -59.74,60.26 -33.13,0.14 -60.11,-26.6 -60.26,-59.74 -0.14,-33.14 26.61,-60.12 59.74,-60.26zm-0.01 -2.81c-34.69,0.15 -62.69,28.39 -62.54,63.08 0.15,34.69 28.4,62.69 63.09,62.54 34.69,-0.15 62.69,-28.39 62.54,-63.08 -0.15,-34.69 -28.4,-62.69 -63.09,-62.54z"/>
    <path id="_33" class="fil15" d="M304.66 93.7c34.18,-0.14 62,27.44 62.15,61.61 0.15,34.17 -27.44,61.99 -61.61,62.14 -34.17,0.15 -61.99,-27.43 -62.14,-61.6 -0.15,-34.18 27.43,-62 61.6,-62.15zm-0.01 -2.81c-35.72,0.16 -64.56,29.24 -64.4,64.97 0.15,35.72 29.24,64.56 64.96,64.4 35.73,-0.15 64.57,-29.24 64.41,-64.96 -0.15,-35.73 -29.24,-64.56 -64.97,-64.41z"/>
    <path id="_34" class="fil16" d="M304.66 91.83c35.2,-0.15 63.87,28.26 64.02,63.47 0.16,35.21 -28.26,63.88 -63.47,64.03 -35.21,0.15 -63.87,-28.27 -64.03,-63.48 -0.15,-35.2 28.27,-63.87 63.48,-64.02zm-0.01 -2.81c-36.77,0.16 -66.44,30.09 -66.28,66.85 0.16,36.76 30.09,66.43 66.85,66.27 36.76,-0.16 66.43,-30.09 66.28,-66.85 -0.16,-36.76 -30.09,-66.43 -66.85,-66.27z"/>
    <path id="_35" class="fil17" d="M304.65 89.95c36.24,-0.15 65.75,29.1 65.91,65.34 0.16,36.25 -29.1,65.76 -65.34,65.91 -36.25,0.16 -65.75,-29.09 -65.91,-65.34 -0.16,-36.24 29.09,-65.75 65.34,-65.91zm-0.01 -2.81c-37.8,0.17 -68.31,30.94 -68.14,68.74 0.16,37.79 30.93,68.3 68.73,68.14 37.8,-0.17 68.3,-30.94 68.14,-68.74 -0.16,-37.8 -30.94,-68.3 -68.73,-68.14z"/>
    <path id="_36" class="fil17" d="M304.64 88.08c37.28,-0.16 67.63,29.93 67.79,67.21 0.16,37.27 -29.92,67.63 -67.2,67.79 -37.28,0.16 -67.63,-29.93 -67.8,-67.21 -0.16,-37.28 29.93,-67.63 67.21,-67.79zm-0.01 -2.81c-38.83,0.16 -70.18,31.78 -70.01,70.61 0.17,38.84 31.79,70.18 70.62,70.01 38.83,-0.17 70.17,-31.78 70.01,-70.62 -0.17,-38.83 -31.79,-70.17 -70.62,-70z"/>
    <path id="_37" class="fil18" d="M304.63 86.2c38.32,-0.16 69.51,30.76 69.68,69.08 0.16,38.31 -30.76,69.51 -69.08,69.67 -38.31,0.17 -69.5,-30.76 -69.67,-69.07 -0.17,-38.31 30.76,-69.51 69.07,-69.68zm-0.01 -2.81c-39.87,0.17 -72.05,32.63 -71.87,72.5 0.17,39.87 32.63,72.05 72.5,71.88 39.86,-0.18 72.04,-32.64 71.87,-72.51 -0.17,-39.86 -32.63,-72.04 -72.5,-71.87z"/>
    <path id="_38" class="fil19" d="M304.62 84.33c39.35,-0.17 71.39,31.59 71.56,70.94 0.17,39.35 -31.59,71.39 -70.94,71.56 -39.35,0.17 -71.38,-31.59 -71.56,-70.94 -0.17,-39.35 31.59,-71.39 70.94,-71.56zm-0.01 -2.81c-40.9,0.17 -73.92,33.48 -73.74,74.38 0.18,40.9 33.48,73.92 74.38,73.74 40.91,-0.18 73.92,-33.48 73.75,-74.38 -0.18,-40.91 -33.48,-73.92 -74.39,-73.74z"/>
    <path id="_39" class="fil20" d="M304.62 82.45c40.38,-0.17 73.26,32.43 73.44,72.81 0.17,40.39 -32.42,73.27 -72.81,73.44 -40.38,0.18 -73.27,-32.42 -73.44,-72.8 -0.18,-40.39 32.42,-73.27 72.81,-73.45zm-0.02 -2.81c-41.93,0.18 -75.79,34.33 -75.6,76.27 0.18,41.94 34.32,75.79 76.26,75.61 41.94,-0.19 75.79,-34.33 75.61,-76.27 -0.18,-41.94 -34.33,-75.79 -76.27,-75.61z"/>
    <path id="_40" class="fil20" d="M304.61 80.58c41.42,-0.18 75.14,33.25 75.32,74.67 0.18,41.42 -33.25,75.15 -74.67,75.33 -41.42,0.18 -75.15,-33.25 -75.33,-74.68 -0.18,-41.42 33.26,-75.14 74.68,-75.32zm-0.01 -2.81c-42.98,0.18 -77.66,35.17 -77.48,78.15 0.19,42.97 35.18,77.66 78.15,77.47 42.98,-0.19 77.66,-35.17 77.48,-78.15 -0.19,-42.97 -35.18,-77.66 -78.15,-77.47z"/>
    <path id="_41" class="fil21" d="M304.6 78.7c42.46,-0.18 77.02,34.09 77.21,76.55 0.18,42.45 -34.09,77.02 -76.54,77.2 -42.46,0.19 -77.03,-34.08 -77.21,-76.54 -0.19,-42.45 34.08,-77.02 76.54,-77.21zm-0.01 -2.81c-44.01,0.19 -79.53,36.02 -79.34,80.03 0.19,44.01 36.02,79.54 80.03,79.35 44.01,-0.2 79.53,-36.03 79.34,-80.04 -0.19,-44.01 -36.02,-79.53 -80.03,-79.34z"/>
    <path id="_42" class="fil22" d="M304.59 76.83c43.49,-0.19 78.9,34.91 79.09,78.41 0.19,43.49 -34.91,78.9 -78.4,79.09 -43.5,0.19 -78.91,-34.92 -79.1,-78.41 -0.18,-43.49 34.92,-78.9 78.41,-79.09zm-0.01 -2.81c-45.05,0.19 -81.4,36.87 -81.21,81.91 0.2,45.05 36.87,81.41 81.92,81.21 45.04,-0.2 81.4,-36.87 81.21,-81.92 -0.2,-45.04 -36.88,-81.4 -81.92,-81.2z"/>
    <path id="_43" class="fil23" d="M304.58 74.95c44.53,-0.19 80.78,35.75 80.98,80.28 0.19,44.53 -35.75,80.78 -80.28,80.97 -44.52,0.2 -80.78,-35.74 -80.97,-80.27 -0.19,-44.53 35.75,-80.78 80.27,-80.98zm-0.01 -2.81c-46.08,0.2 -83.27,37.72 -83.07,83.8 0.2,46.08 37.71,83.28 83.8,83.08 46.08,-0.21 83.27,-37.72 83.07,-83.8 -0.2,-46.08 -37.72,-83.28 -83.8,-83.08z"/>
    <path id="_44" class="fil24" d="M304.58 73.08c45.56,-0.2 82.65,36.58 82.85,82.14 0.2,45.56 -36.58,82.66 -82.14,82.86 -45.56,0.2 -82.66,-36.58 -82.86,-82.14 -0.19,-45.57 36.58,-82.66 82.15,-82.86zm-0.02 -2.81c-47.11,0.2 -85.14,38.56 -84.94,85.68 0.21,47.12 38.57,85.14 85.68,84.94 47.12,-0.2 85.15,-38.57 84.95,-85.68 -0.21,-47.12 -38.57,-85.15 -85.69,-84.94z"/>
    <path id="_45" class="fil25" d="M304.57 71.2c46.6,-0.2 84.54,37.41 84.74,84.01 0.2,46.6 -37.41,84.54 -84.01,84.74 -46.6,0.21 -84.54,-37.41 -84.74,-84.01 -0.2,-46.59 37.41,-84.53 84.01,-84.74zm-0.02 -2.81c-48.15,0.21 -87.01,39.42 -86.8,87.57 0.21,48.15 39.41,87.01 87.56,86.81 48.15,-0.21 87.02,-39.42 86.81,-87.57 -0.21,-48.15 -39.41,-87.02 -87.57,-86.81z"/>
    <path id="_46" class="fil26" d="M304.56 69.33c47.63,-0.21 86.42,38.24 86.62,85.87 0.21,47.64 -38.24,86.42 -85.87,86.63 -47.64,0.2 -86.42,-38.24 -86.63,-85.88 -0.2,-47.63 38.25,-86.41 85.88,-86.62zm-0.01 -2.81c-49.19,0.21 -88.89,40.26 -88.68,89.44 0.21,49.19 40.26,88.89 89.45,88.68 49.19,-0.21 88.89,-40.26 88.67,-89.45 -0.21,-49.19 -40.26,-88.89 -89.44,-88.67z"/>
    <path id="_47" class="fil27" d="M304.55 67.45c48.67,-0.21 88.3,39.08 88.51,87.75 0.21,48.67 -39.07,88.29 -87.74,88.5 -48.67,0.21 -88.3,-39.07 -88.51,-87.74 -0.21,-48.67 39.07,-88.3 87.74,-88.51zm-0.01 -2.81c-50.22,0.22 -90.76,41.11 -90.54,91.33 0.21,50.23 41.11,90.76 91.33,90.54 50.22,-0.21 90.76,-41.1 90.54,-91.33 -0.22,-50.22 -41.11,-90.76 -91.33,-90.54z"/>
    <path id="_48" class="fil28" d="M304.54 65.58c49.71,-0.22 90.18,39.9 90.39,89.61 0.22,49.7 -39.9,90.17 -89.61,90.39 -49.7,0.21 -90.17,-39.91 -90.39,-89.61 -0.21,-49.71 39.91,-90.18 89.61,-90.39zm-0.01 -2.81c-51.26,0.22 -92.63,41.95 -92.41,93.21 0.22,51.26 41.96,92.63 93.22,92.41 51.25,-0.22 92.63,-41.96 92.41,-93.21 -0.23,-51.26 -41.96,-92.64 -93.22,-92.41z"/>
    <path id="_49" class="fil29" d="M304.54 63.7c50.74,-0.22 92.05,40.74 92.27,91.48 0.22,50.74 -40.74,92.05 -91.48,92.27 -50.74,0.22 -92.05,-40.73 -92.27,-91.47 -0.22,-50.74 40.73,-92.06 91.48,-92.28zm-0.02 -2.81c-52.29,0.23 -94.5,42.81 -94.27,95.1 0.22,52.29 42.8,94.5 95.09,94.28 52.3,-0.23 94.51,-42.81 94.28,-95.1 -0.23,-52.3 -42.8,-94.51 -95.1,-94.28z"/>
    <path id="_50" class="fil30" d="M304.53 61.83c51.77,-0.23 93.93,41.56 94.15,93.34 0.23,51.78 -41.56,93.93 -93.34,94.16 -51.78,0.22 -93.93,-41.57 -94.16,-93.34 -0.22,-51.78 41.57,-93.94 93.35,-94.16zm-0.02 -2.81c-53.33,0.23 -96.37,43.65 -96.14,96.98 0.23,53.33 43.65,96.37 96.98,96.14 53.33,-0.23 96.38,-43.65 96.15,-96.98 -0.24,-53.33 -43.66,-96.37 -96.99,-96.14z"/>
    <path id="_51" class="fil31" d="M304.52 59.95c52.81,-0.23 95.81,42.4 96.04,95.21 0.23,52.82 -42.4,95.81 -95.21,96.04 -52.81,0.23 -95.81,-42.4 -96.04,-95.21 -0.23,-52.81 42.4,-95.81 95.21,-96.04zm-0.01 -2.81c-54.37,0.24 -98.25,44.5 -98.01,98.87 0.23,54.36 44.5,98.24 98.86,98 54.37,-0.23 98.25,-44.49 98.01,-98.86 -0.24,-54.36 -44.5,-98.24 -98.86,-98.01z"/>
    <path id="_52" class="fil32" d="M304.51 58.08c53.85,-0.23 97.69,43.23 97.92,97.07 0.24,53.85 -43.23,97.69 -97.07,97.93 -53.85,0.23 -97.69,-43.23 -97.93,-97.08 -0.23,-53.85 43.23,-97.69 97.08,-97.92zm-0.01 -2.81c-55.4,0.24 -100.12,45.34 -99.88,100.74 0.24,55.4 45.35,100.12 100.75,99.88 55.4,-0.24 100.12,-45.35 99.88,-100.75 -0.24,-55.4 -45.35,-100.11 -100.75,-99.87z"/>
    <path id="_53" class="fil33" d="M304.5 56.2c54.88,-0.23 99.57,44.06 99.81,98.95 0.24,54.88 -44.06,99.56 -98.95,99.8 -54.88,0.24 -99.56,-44.06 -99.8,-98.94 -0.24,-54.88 44.06,-99.57 98.94,-99.81zm-0.01 -2.81c-56.44,0.25 -101.99,46.2 -101.74,102.63 0.24,56.44 46.19,101.99 102.63,101.75 56.43,-0.25 101.99,-46.2 101.74,-102.63 -0.24,-56.44 -46.19,-101.99 -102.63,-101.75z"/>
    <path id="_54" class="fil34" d="M304.49 54.33c55.92,-0.24 101.45,44.89 101.69,100.81 0.25,55.92 -44.89,101.44 -100.81,101.69 -55.92,0.24 -101.44,-44.89 -101.69,-100.81 -0.24,-55.92 44.9,-101.45 100.81,-101.69zm-0.01 -2.81c-57.47,0.25 -103.86,47.04 -103.61,104.51 0.25,57.47 47.04,103.86 104.51,103.61 57.48,-0.25 103.86,-47.04 103.62,-104.51 -0.25,-57.47 -47.05,-103.86 -104.52,-103.61z"/>
    <path id="_55" class="fil35" d="M304.49 52.45c56.95,-0.24 103.32,45.73 103.57,102.68 0.25,56.95 -45.72,103.33 -102.68,103.57 -56.95,0.25 -103.32,-45.72 -103.57,-102.67 -0.25,-56.96 45.72,-103.33 102.68,-103.58zm-0.02 -2.81c-58.5,0.26 -105.73,47.89 -105.47,106.4 0.25,58.51 47.89,105.73 106.39,105.48 58.51,-0.26 105.73,-47.89 105.48,-106.4 -0.25,-58.51 -47.89,-105.73 -106.4,-105.48z"/>
    <path id="_56" class="fil36" d="M304.48 50.58c57.99,-0.25 105.2,46.55 105.45,104.54 0.25,57.99 -46.55,105.21 -104.54,105.46 -57.99,0.25 -105.2,-46.56 -105.46,-104.55 -0.25,-57.99 46.56,-105.2 104.55,-105.45zm-0.01 -2.81c-59.55,0.26 -107.61,48.73 -107.35,108.28 0.26,59.54 48.74,107.6 108.28,107.34 59.54,-0.26 107.6,-48.74 107.34,-108.28 -0.25,-59.54 -48.73,-107.6 -108.27,-107.34z"/>
    <path id="_57" class="fil37" d="M304.47 48.7c59.02,-0.25 107.08,47.39 107.34,106.41 0.25,59.03 -47.39,107.09 -106.41,107.34 -59.03,0.26 -107.08,-47.38 -107.34,-106.41 -0.26,-59.02 47.38,-107.08 106.41,-107.34zm-0.01 -2.81c-60.58,0.26 -109.48,49.59 -109.21,110.16 0.26,60.58 49.58,109.48 110.16,109.21 60.58,-0.26 109.47,-49.58 109.21,-110.16 -0.26,-60.58 -49.58,-109.47 -110.16,-109.21z"/>
    <path id="_58" class="fil38" d="M304.46 46.83c60.06,-0.26 108.96,48.22 109.22,108.28 0.26,60.06 -48.21,108.96 -108.27,109.22 -60.06,0.26 -108.96,-48.22 -109.23,-108.28 -0.26,-60.06 48.22,-108.96 108.28,-109.22zm-0.01 -2.81c-61.61,0.26 -111.34,50.43 -111.08,112.04 0.27,61.62 50.43,111.35 112.05,111.08 61.61,-0.27 111.34,-50.43 111.08,-112.05 -0.27,-61.61 -50.44,-111.34 -112.05,-111.07z"/>
    <path id="_59" class="fil39" d="M304.45 44.95c61.1,-0.26 110.84,49.05 111.11,110.15 0.26,61.09 -49.05,110.84 -110.15,111.1 -61.09,0.27 -110.84,-49.05 -111.1,-110.14 -0.27,-61.1 49.05,-110.84 110.14,-111.11zm-0.01 -2.81c-62.65,0.27 -113.21,51.28 -112.94,113.93 0.27,62.65 51.28,113.22 113.93,112.95 62.65,-0.28 113.21,-51.28 112.94,-113.93 -0.27,-62.65 -51.28,-113.22 -113.93,-112.95z"/>
    <path id="_60" class="fil40" d="M304.44 43.08c62.14,-0.27 112.72,49.88 112.99,112.01 0.27,62.13 -49.88,112.72 -112.01,112.99 -62.13,0.27 -112.72,-49.88 -112.99,-112.01 -0.26,-62.13 49.88,-112.72 112.01,-112.99zm-0.01 -2.81c-63.68,0.27 -115.08,52.12 -114.81,115.81 0.28,63.68 52.13,115.09 115.81,114.81 63.69,-0.28 115.09,-52.13 114.81,-115.81 -0.27,-63.69 -52.12,-115.09 -115.81,-114.81z"/>
    <path id="_61" class="fil41" d="M304.44 41.2c63.16,-0.27 114.59,50.72 114.87,113.88 0.27,63.17 -50.71,114.6 -113.88,114.87 -63.17,0.28 -114.6,-50.71 -114.87,-113.88 -0.27,-63.16 50.71,-114.59 113.88,-114.87zm-0.01 -2.81c-64.72,0.28 -116.96,52.98 -116.68,117.7 0.28,64.72 52.97,116.96 117.69,116.67 64.72,-0.28 116.96,-52.97 116.68,-117.69 -0.28,-64.72 -52.97,-116.96 -117.69,-116.68z"/>
    <path id="_62" class="fil42" d="M304.43 39.33c64.2,-0.28 116.47,51.54 116.75,115.74 0.28,64.21 -51.54,116.48 -115.74,116.76 -64.2,0.28 -116.48,-51.54 -116.76,-115.75 -0.27,-64.2 51.55,-116.47 115.75,-116.75zm-0.01 -2.81c-65.76,0.28 -118.83,53.82 -118.55,119.57 0.29,65.76 53.82,118.83 119.58,118.55 65.76,-0.28 118.83,-53.82 118.55,-119.58 -0.29,-65.75 -53.83,-118.83 -119.58,-118.54z"/>
    <path id="_63" class="fil43" d="M304.42 37.45c65.24,-0.28 118.35,52.38 118.64,117.62 0.28,65.23 -52.38,118.35 -117.61,118.63 -65.24,0.29 -118.36,-52.37 -118.64,-117.61 -0.28,-65.24 52.37,-118.35 117.61,-118.64zm-0.01 -2.81c-66.79,0.29 -120.7,54.67 -120.41,121.46 0.29,66.79 54.67,120.7 121.46,120.42 66.79,-0.29 120.7,-54.68 120.41,-121.47 -0.29,-66.79 -54.67,-120.7 -121.46,-120.41z"/>
    <path id="_64" class="fil44" d="M304.41 35.58c66.28,-0.29 120.24,53.2 120.52,119.48 0.29,66.27 -53.2,120.23 -119.48,120.52 -66.27,0.28 -120.23,-53.21 -120.52,-119.48 -0.28,-66.27 53.21,-120.23 119.48,-120.52zm-0.01 -2.81c-67.83,0.29 -122.57,55.51 -122.28,123.34 0.3,67.83 55.52,122.57 123.35,122.28 67.82,-0.29 122.57,-55.52 122.28,-123.35 -0.3,-67.82 -55.52,-122.57 -123.35,-122.27z"/>
    <path id="_65" class="fil45" d="M304.41 33.7c67.3,-0.29 122.11,54.04 122.4,121.35 0.29,67.31 -54.04,122.11 -121.35,122.4 -67.31,0.29 -122.11,-54.03 -122.4,-121.34 -0.29,-67.31 54.04,-122.11 121.35,-122.41zm-0.02 -2.81c-68.86,0.3 -124.44,56.37 -124.14,125.23 0.3,68.86 56.36,124.44 125.22,124.14 68.87,-0.29 124.45,-56.36 124.15,-125.22 -0.3,-68.87 -56.37,-124.45 -125.23,-124.15z"/>
    <path id="_66" class="fil46" d="M304.4 31.83c68.34,-0.3 123.99,54.87 124.28,123.21 0.3,68.35 -54.87,123.99 -123.21,124.29 -68.34,0.29 -123.99,-54.87 -124.28,-123.21 -0.3,-68.35 54.86,-123.99 123.21,-124.29zm-0.02 -2.81c-69.89,0.3 -126.31,57.21 -126.01,127.11 0.31,69.9 57.21,126.31 127.11,126.01 69.9,-0.3 126.32,-57.21 126.02,-127.11 -0.31,-69.9 -57.22,-126.32 -127.12,-126.01z"/>
    <path id="_67" class="fil47" d="M304.39 29.95c69.38,-0.3 125.87,55.7 126.17,125.08 0.3,69.38 -55.7,125.87 -125.08,126.17 -69.38,0.3 -125.87,-55.7 -126.17,-125.08 -0.3,-69.38 55.7,-125.86 125.08,-126.17zm-0.01 -2.81c-70.94,0.31 -128.19,58.06 -127.88,129 0.3,70.93 58.06,128.18 128.99,127.88 70.93,-0.31 128.19,-58.07 127.88,-129 -0.31,-70.93 -58.06,-128.19 -128.99,-127.88z"/>
    <path id="_68" class="fil48" d="M304.38 28.08c70.42,-0.31 127.75,56.53 128.05,126.95 0.31,70.41 -56.53,127.74 -126.94,128.05 -70.42,0.3 -127.75,-56.53 -128.06,-126.95 -0.3,-70.41 56.53,-127.75 126.95,-128.05zm-0.01 -2.81c-71.97,0.31 -130.06,58.91 -129.75,130.87 0.31,71.97 58.91,130.06 130.88,129.75 71.97,-0.31 130.06,-58.91 129.75,-130.88 -0.32,-71.97 -58.91,-130.05 -130.88,-129.74z"/>
    <path id="_69" class="fil49" d="M304.37 26.2c71.45,-0.31 129.63,57.37 129.94,128.82 0.31,71.45 -57.36,129.62 -128.82,129.93 -71.45,0.31 -129.62,-57.36 -129.93,-128.81 -0.31,-71.45 57.36,-129.63 128.81,-129.94zm-0.01 -2.81c-73,0.32 -131.93,59.76 -131.61,132.76 0.31,73.01 59.75,131.93 132.76,131.61 73,-0.31 131.93,-59.75 131.61,-132.75 -0.32,-73.01 -59.76,-131.93 -132.76,-131.62z"/>
    <path id="_70" class="fil50" d="M304.36 24.33c72.49,-0.31 131.51,58.19 131.82,130.68 0.32,72.49 -58.19,131.5 -130.68,131.82 -72.48,0.31 -131.5,-58.2 -131.82,-130.68 -0.31,-72.49 58.2,-131.51 130.68,-131.82zm-0.01 -2.81c-74.04,0.32 -133.8,60.6 -133.48,134.64 0.32,74.04 60.61,133.8 134.65,133.48 74.04,-0.32 133.8,-60.6 133.47,-134.64 -0.32,-74.04 -60.6,-133.8 -134.64,-133.48z"/>
    <path id="_71" class="fil51" d="M304.36 22.45c73.52,-0.32 133.38,59.03 133.7,132.55 0.32,73.52 -59.03,133.38 -132.55,133.7 -73.52,0.32 -133.38,-59.02 -133.7,-132.54 -0.32,-73.53 59.02,-133.39 132.55,-133.71zm-0.02 -2.81c-75.07,0.33 -135.67,61.45 -135.34,136.53 0.32,75.07 61.45,135.67 136.52,135.34 75.08,-0.32 135.68,-61.45 135.35,-136.52 -0.33,-75.08 -61.45,-135.67 -136.53,-135.35z"/>
    <path id="_72" class="fil52" d="M304.35 20.58c74.56,-0.32 135.26,59.85 135.58,134.41 0.33,74.56 -59.85,135.26 -134.41,135.59 -74.56,0.32 -135.26,-59.86 -135.59,-134.42 -0.32,-74.55 59.86,-135.26 134.42,-135.58zm-0.01 -2.81c-76.12,0.33 -137.55,62.3 -137.22,138.41 0.33,76.11 62.3,137.54 138.41,137.21 76.11,-0.33 137.54,-62.3 137.22,-138.41 -0.34,-76.11 -62.3,-137.54 -138.41,-137.21z"/>
    <path id="_73" class="fil53" d="M304.34 18.7c75.59,-0.32 137.14,60.69 137.47,136.28 0.33,75.6 -60.69,137.14 -136.28,137.47 -75.6,0.33 -137.14,-60.68 -137.47,-136.28 -0.33,-75.59 60.69,-137.14 136.28,-137.47zm-0.01 -2.81c-77.15,0.34 -139.42,63.15 -139.08,140.29 0.33,77.15 63.14,139.42 140.29,139.09 77.15,-0.34 139.41,-63.15 139.08,-140.3 -0.33,-77.14 -63.15,-139.41 -140.29,-139.08z"/>
    <path id="_74" class="fil54" d="M304.33 16.83c76.63,-0.33 139.02,61.52 139.35,138.15 0.33,76.63 -61.52,139.01 -138.14,139.35 -76.63,0.33 -139.02,-61.52 -139.36,-138.15 -0.33,-76.63 61.52,-139.02 138.15,-139.35zm-0.01 -2.81c-78.18,0.34 -141.29,63.99 -140.95,142.17 0.34,78.19 64,141.29 142.18,140.95 78.18,-0.34 141.28,-63.99 140.94,-142.18 -0.33,-78.18 -63.99,-141.28 -142.17,-140.94z"/>
    <path id="_75" class="fil55" d="M304.32 14.95c77.67,-0.33 140.9,62.35 141.24,140.02 0.33,77.66 -62.35,140.9 -140.02,141.23 -77.66,0.34 -140.89,-62.35 -141.23,-140.01 -0.34,-77.67 62.35,-140.9 140.01,-141.24zm-0.01 -2.81c-79.22,0.35 -143.16,64.84 -142.81,144.06 0.34,79.22 64.84,143.16 144.06,142.81 79.21,-0.34 143.15,-64.84 142.81,-144.05 -0.34,-79.22 -64.84,-143.16 -144.06,-142.82z"/>
    <path id="_76" class="fil56" d="M304.32 13.08c78.69,-0.34 142.77,63.18 143.11,141.88 0.34,78.7 -63.18,142.78 -141.88,143.12 -78.7,0.34 -142.77,-63.18 -143.12,-141.88 -0.34,-78.7 63.19,-142.78 141.89,-143.12zm-0.02 -2.81c-80.25,0.35 -145.03,65.69 -144.68,145.94 0.35,80.25 65.69,145.03 145.94,144.68 80.26,-0.35 145.03,-65.69 144.69,-145.94 -0.35,-80.25 -65.69,-145.03 -145.95,-144.68z"/>
    <path id="_77" class="fil57" d="M304.31 11.2c79.73,-0.34 144.65,64.02 145,143.75 0.34,79.74 -64.01,144.66 -143.75,145 -79.74,0.35 -144.65,-64.01 -145,-143.75 -0.35,-79.73 64.01,-144.65 143.75,-145zm-0.01 -2.81c-81.29,0.36 -146.91,66.54 -146.55,147.83 0.35,81.29 66.53,146.9 147.82,146.55 81.29,-0.36 146.9,-66.54 146.55,-147.83 -0.35,-81.29 -66.54,-146.9 -147.82,-146.55z"/>
    <path id="_78" class="fil58" d="M304.3 9.33c80.77,-0.35 146.53,64.84 146.88,145.61 0.35,80.77 -64.84,146.54 -145.61,146.89 -80.77,0.35 -146.53,-64.85 -146.89,-145.62 -0.35,-80.77 64.85,-146.53 145.62,-146.88zm-0.01 -2.81c-82.33,0.35 -148.78,67.38 -148.42,149.71 0.36,82.32 67.39,148.77 149.71,148.41 82.32,-0.36 148.77,-67.38 148.41,-149.71 -0.35,-82.32 -67.38,-148.77 -149.7,-148.41z"/>
    <path id="_79" class="fil59" d="M304.29 7.45c81.81,-0.35 148.41,65.68 148.77,147.49 0.35,81.8 -65.68,148.41 -147.48,148.76 -81.81,0.36 -148.41,-65.67 -148.77,-147.48 -0.36,-81.81 65.67,-148.41 147.48,-148.77zm-0.01 -2.81c-83.36,0.36 -150.64,68.23 -150.28,151.59 0.36,83.36 68.23,150.65 151.59,150.28 83.36,-0.36 150.64,-68.23 150.28,-151.59 -0.36,-83.36 -68.23,-150.64 -151.59,-150.28z"/>
    <path id="_80" class="fil60" d="M304.28 5.58c82.84,-0.36 150.29,66.5 150.65,149.35 0.36,82.84 -66.5,150.29 -149.35,150.65 -82.84,0.36 -150.29,-66.51 -150.64,-149.35 -0.36,-82.84 66.5,-150.29 149.34,-150.65zm-0.01 -2.81c-84.39,0.36 -152.51,69.08 -152.15,153.47 0.37,84.4 69.08,152.52 153.48,152.15 84.39,-0.37 152.51,-69.08 152.14,-153.47 -0.36,-84.4 -69.07,-152.52 -153.47,-152.15z"/>
    <path id="_81" class="fil61" d="M304.27 3.7c83.88,-0.36 152.17,67.34 152.54,151.22 0.36,83.88 -67.34,152.17 -151.22,152.53 -83.87,0.37 -152.17,-67.33 -152.53,-151.21 -0.36,-83.88 67.34,-152.17 151.21,-152.54zm-0.01 -2.81c-85.43,0.37 -154.38,69.93 -154.01,155.36 0.37,85.43 69.92,154.39 155.35,154.01 85.44,-0.37 154.39,-69.92 154.02,-155.35 -0.37,-85.43 -69.93,-154.39 -155.36,-154.02z"/>
    <path id="_82" class="fil62" d="M304.27 1.83c84.91,-0.37 154.04,68.17 154.41,153.08 0.37,84.91 -68.17,154.05 -153.08,154.42 -84.91,0.37 -154.05,-68.17 -154.42,-153.08 -0.36,-84.92 68.17,-154.05 153.09,-154.42zm-0.02 -2.81c-86.46,0.37 -156.25,70.77 -155.88,157.24 0.38,86.46 70.78,156.25 157.24,155.88 86.47,-0.38 156.26,-70.77 155.89,-157.24 -0.38,-86.47 -70.78,-156.26 -157.25,-155.88z"/>
    <path id="_83" class="fil63" d="M304.26 -0.05c85.95,-0.37 155.92,69 156.3,154.95 0.37,85.95 -69,155.93 -154.95,156.3 -85.95,0.38 -155.93,-69 -156.3,-154.95 -0.37,-85.94 69,-155.92 154.95,-156.3zm-0.01 -2.81c-87.51,0.38 -158.13,71.62 -157.75,159.13 0.38,87.5 71.62,158.12 159.12,157.74 87.5,-0.37 158.13,-71.62 157.75,-159.12 -0.38,-87.5 -71.62,-158.13 -159.12,-157.75z"/>
    <path id="_84" class="fil64" d="M304.25 -1.92c86.98,-0.38 157.81,69.83 158.18,156.82 0.38,86.98 -69.83,157.8 -156.81,158.18 -86.99,0.37 -157.81,-69.83 -158.18,-156.82 -0.38,-86.98 69.83,-157.8 156.81,-158.18zm-0.01 -2.81c-88.54,0.38 -160,72.47 -159.62,161 0.39,88.54 72.47,160 161.01,159.62 88.54,-0.38 160,-72.47 159.61,-161.01 -0.38,-88.53 -72.46,-160 -161,-159.61z"/>
    <path id="_85" class="fil65" d="M304.24 -3.8c88.02,-0.38 159.69,70.67 160.07,158.69 0.38,88.02 -70.67,159.68 -158.68,160.06 -88.02,0.38 -159.69,-70.66 -160.07,-158.68 -0.38,-88.02 70.66,-159.68 158.68,-160.07zm-0.01 -2.81c-89.57,0.39 -161.87,73.32 -161.48,162.89 0.39,89.57 73.31,161.87 162.89,161.48 89.57,-0.38 161.87,-73.31 161.48,-162.89 -0.39,-89.57 -73.32,-161.87 -162.89,-161.48z"/>
    <path id="_86" class="fil66" d="M304.23 -5.67c89.06,-0.39 161.57,71.49 161.95,160.55 0.39,89.05 -71.49,161.56 -160.55,161.95 -89.05,0.38 -161.56,-71.5 -161.95,-160.55 -0.38,-89.06 71.5,-161.56 160.55,-161.95zm-0.01 -2.81c-90.61,0.39 -163.74,74.16 -163.35,164.77 0.4,90.61 74.17,163.74 164.78,163.35 90.6,-0.39 163.74,-74.17 163.35,-164.77 -0.4,-90.61 -74.17,-163.75 -164.78,-163.35z"/>
    <path id="_87" class="fil67" d="M304.23 -7.55c90.09,-0.39 163.44,72.33 163.83,162.42 0.39,90.09 -72.33,163.44 -162.42,163.83 -90.09,0.39 -163.44,-72.32 -163.83,-162.41 -0.39,-90.1 72.32,-163.44 162.42,-163.84zm-0.02 -2.81c-91.64,0.4 -165.61,75.01 -165.21,166.66 0.39,91.64 75.01,165.61 166.65,165.21 91.65,-0.39 165.62,-75.01 165.22,-166.65 -0.4,-91.65 -75.01,-165.62 -166.66,-165.22z"/>
    <path id="_88" class="fil68" d="M304.22 -9.42c91.12,-0.4 165.32,73.16 165.71,164.28 0.4,91.13 -73.15,165.32 -164.28,165.72 -91.13,0.39 -165.32,-73.16 -165.72,-164.29 -0.39,-91.12 73.16,-165.32 164.29,-165.71zm-0.01 -2.81c-92.68,0.4 -167.49,75.86 -167.09,168.54 0.4,92.68 75.86,167.48 168.54,167.08 92.68,-0.4 167.49,-75.86 167.08,-168.54 -0.4,-92.68 -75.86,-167.48 -168.53,-167.08z"/>
    <path id="_89" class="fil69" d="M304.21 -11.29c92.16,-0.41 167.2,73.98 167.6,166.14 0.4,92.17 -73.99,167.2 -166.15,167.6 -92.16,0.4 -167.2,-73.99 -167.6,-166.15 -0.4,-92.16 73.99,-167.2 166.15,-167.59zm-0.01 -2.82c-93.72,0.41 -169.36,76.71 -168.95,170.42 0.4,93.72 76.7,169.36 170.42,168.95 93.72,-0.4 169.36,-76.7 168.95,-170.42 -0.41,-93.71 -76.71,-169.35 -170.42,-168.95z"/>
    <path id="_90" class="fil70" d="M304.2 -13.17c93.2,-0.4 169.08,74.82 169.48,168.02 0.41,93.19 -74.82,169.07 -168.01,169.48 -93.2,0.4 -169.08,-74.82 -169.48,-168.02 -0.41,-93.2 74.81,-169.08 168.01,-169.48zm-0.01 -2.81c-94.75,0.41 -171.23,77.55 -170.82,172.3 0.41,94.75 77.56,171.23 172.31,170.82 94.75,-0.41 171.23,-77.56 170.82,-172.31 -0.42,-94.75 -77.56,-171.22 -172.31,-170.81z"/>
    <path id="_91" class="fil71" d="M304.19 -15.05c94.24,-0.4 170.96,75.66 171.37,169.89 0.41,94.23 -75.65,170.95 -169.89,171.36 -94.23,0.41 -170.95,-75.65 -171.36,-169.88 -0.41,-94.23 75.65,-170.96 169.88,-171.37zm-0.01 -2.81c-95.79,0.42 -173.1,78.41 -172.68,174.19 0.41,95.79 78.4,173.1 174.19,172.69 95.78,-0.42 173.1,-78.41 172.68,-174.19 -0.42,-95.79 -78.4,-173.1 -174.19,-172.69z"/>
    <path id="_92" class="fil72" d="M304.19 -16.92c95.26,-0.41 172.83,76.48 173.24,171.75 0.42,95.27 -76.48,172.83 -171.75,173.25 -95.27,0.41 -172.83,-76.48 -173.25,-171.75 -0.41,-95.27 76.49,-172.84 171.76,-173.25zm-0.02 -2.81c-96.82,0.42 -174.97,79.25 -174.55,176.07 0.42,96.82 79.25,174.97 176.07,174.55 96.83,-0.42 174.97,-79.25 174.55,-176.07 -0.42,-96.82 -79.24,-174.97 -176.07,-174.55z"/>
    <path id="_93" class="fil73" d="M304.18 -18.79c96.3,-0.42 174.71,77.31 175.13,173.61 0.42,96.31 -77.32,174.71 -173.62,175.13 -96.3,0.42 -174.71,-77.31 -175.13,-173.62 -0.42,-96.3 77.31,-174.71 173.62,-175.12zm-0.02 -2.82c-97.85,0.43 -176.84,80.1 -176.41,177.96 0.42,97.85 80.1,176.84 177.95,176.41 97.86,-0.42 176.84,-80.09 176.42,-177.95 -0.43,-97.86 -80.1,-176.84 -177.96,-176.42z"/>
    <path id="_94" class="fil74" d="M304.17 -20.67c97.34,-0.42 176.59,78.14 177.01,175.48 0.42,97.34 -78.14,176.59 -175.48,177.02 -97.34,0.42 -176.59,-78.15 -177.01,-175.49 -0.43,-97.34 78.14,-176.59 175.48,-177.01zm-0.01 -2.81c-98.9,0.43 -178.72,80.94 -178.29,179.84 0.43,98.89 80.95,178.71 179.84,178.28 98.89,-0.43 178.71,-80.95 178.28,-179.84 -0.42,-98.89 -80.94,-178.71 -179.83,-178.28z"/>
    <path id="_95" class="fil75" d="M304.16 -22.55c98.38,-0.42 178.47,78.98 178.9,177.36 0.42,98.37 -78.98,178.46 -177.35,178.89 -98.38,0.43 -178.47,-78.97 -178.9,-177.35 -0.43,-98.37 78.98,-178.47 177.35,-178.9zm-0.01 -2.81c-99.93,0.44 -180.59,81.79 -180.15,181.72 0.43,99.93 81.79,180.59 181.72,180.15 99.93,-0.43 180.58,-81.79 180.15,-181.72 -0.43,-99.92 -81.79,-180.58 -181.72,-180.15z"/>
    <path id="_96" class="fil76" d="M304.15 -24.42c99.41,-0.43 180.35,79.81 180.78,179.22 0.43,99.41 -79.8,180.35 -179.22,180.78 -99.41,0.43 -180.34,-79.81 -180.78,-179.22 -0.43,-99.41 79.81,-180.35 179.22,-180.78zm-0.01 -2.81c-100.96,0.44 -182.46,82.64 -182.02,183.6 0.44,100.97 82.64,182.46 183.61,182.02 100.96,-0.44 182.45,-82.64 182.01,-183.6 -0.43,-100.97 -82.64,-182.46 -183.6,-182.02z"/>
    <path id="_97" class="fil77" d="M304.14 -26.3c100.45,-0.43 182.23,80.64 182.67,181.09 0.43,100.45 -80.64,182.23 -181.09,182.66 -100.44,0.44 -182.22,-80.64 -182.66,-181.08 -0.44,-100.45 80.64,-182.23 181.08,-182.67zm-0.01 -2.81c-102,0.45 -184.33,83.49 -183.88,185.49 0.44,102 83.49,184.33 185.48,183.88 102,-0.44 184.33,-83.48 183.89,-185.48 -0.44,-102 -83.49,-184.33 -185.49,-183.89z"/>
    <path id="_98" class="fil78" d="M304.14 -28.17c101.48,-0.44 184.1,81.47 184.54,182.95 0.44,101.48 -81.47,184.11 -182.95,184.55 -101.48,0.44 -184.11,-81.47 -184.54,-182.95 -0.44,-101.49 81.47,-184.11 182.95,-184.55zm-0.02 -2.81c-103.03,0.44 -186.2,84.33 -185.75,187.37 0.45,103.03 84.34,186.2 187.37,185.75 103.04,-0.45 186.2,-84.34 185.75,-187.37 -0.44,-103.04 -84.33,-186.2 -187.37,-185.75z"/>
    <path id="_99" class="fil79" d="M304.13 -30.05c102.51,-0.44 185.98,82.31 186.43,184.82 0.44,102.52 -82.3,185.99 -184.82,186.43 -102.52,0.45 -185.99,-82.3 -186.43,-184.82 -0.45,-102.51 82.3,-185.98 184.82,-186.43zm-0.01 -2.81c-104.07,0.45 -188.07,85.19 -187.62,189.26 0.45,104.07 85.18,188.07 189.25,187.61 104.07,-0.45 188.07,-85.18 187.62,-189.25 -0.45,-104.07 -85.18,-188.07 -189.25,-187.62z"/>
    <path id="_100" class="fil80" d="M304.12 -31.92c103.55,-0.45 187.86,83.13 188.31,186.69 0.45,103.55 -83.13,187.86 -186.68,188.31 -103.56,0.45 -187.87,-83.14 -188.32,-186.69 -0.44,-103.55 83.14,-187.86 186.69,-188.31zm-0.01 -2.81c-105.11,0.45 -189.94,86.03 -189.49,191.13 0.46,105.11 86.03,189.95 191.14,189.49 105.1,-0.46 189.94,-86.03 189.49,-191.14 -0.46,-105.1 -86.04,-189.94 -191.14,-189.48z"/>
    <path id="_101" class="fil81" d="M304.11 -33.8c104.59,-0.45 189.74,83.97 190.2,188.56 0.45,104.58 -83.97,189.74 -188.55,190.19 -104.59,0.46 -189.75,-83.96 -190.2,-188.55 -0.45,-104.59 83.96,-189.74 188.55,-190.2zm-0.01 -2.81c-106.14,0.46 -191.81,86.88 -191.35,193.02 0.46,106.14 86.88,191.81 193.02,191.35 106.14,-0.46 191.81,-86.87 191.35,-193.02 -0.46,-106.14 -86.88,-191.81 -193.02,-191.35z"/>
    <path id="_102" class="fil82" d="M304.1 -35.67c105.63,-0.46 191.62,84.79 192.08,190.42 0.46,105.62 -84.79,191.62 -190.42,192.08 -105.62,0.45 -191.62,-84.8 -192.08,-190.42 -0.45,-105.62 84.8,-191.62 190.42,-192.08zm-0.01 -2.81c-107.18,0.46 -193.68,87.72 -193.22,194.9 0.47,107.18 87.73,193.69 194.91,193.22 107.17,-0.47 193.68,-87.73 193.21,-194.9 -0.46,-107.18 -87.72,-193.69 -194.9,-193.22z"/>
    <path id="_103" class="fil83" d="M304.1 -37.54c106.66,-0.47 193.49,85.62 193.96,192.28 0.46,106.66 -85.63,193.5 -192.29,193.96 -106.66,0.46 -193.5,-85.62 -193.96,-192.28 -0.46,-106.66 85.63,-193.5 192.29,-193.96zm-0.02 -2.82c-108.21,0.47 -195.55,88.58 -195.08,196.79 0.47,108.21 88.57,195.55 196.78,195.08 108.22,-0.46 195.56,-88.57 195.09,-196.78 -0.47,-108.21 -88.57,-195.56 -196.79,-195.09z"/>
    <path id="_104" class="fil84" d="M304.09 -39.42c107.69,-0.47 195.38,86.46 195.84,194.15 0.47,107.7 -86.46,195.38 -194.15,195.85 -107.69,0.46 -195.38,-86.46 -195.84,-194.16 -0.47,-107.69 86.45,-195.37 194.15,-195.84zm-0.01 -2.81c-109.25,0.47 -197.43,89.42 -196.96,198.67 0.48,109.24 89.42,197.42 198.67,196.95 109.25,-0.47 197.43,-89.42 196.95,-198.67 -0.47,-109.25 -89.42,-197.43 -198.66,-196.95z"/>
    <path id="_105" class="fil85" d="M304.08 -41.3c108.73,-0.47 197.26,87.29 197.73,196.02 0.47,108.73 -87.29,197.26 -196.02,197.73 -108.73,0.47 -197.26,-87.29 -197.73,-196.02 -0.47,-108.73 87.29,-197.25 196.02,-197.73zm-0.01 -2.81c-110.29,0.48 -199.3,90.27 -198.82,200.55 0.48,110.29 90.27,199.3 200.55,198.82 110.28,-0.47 199.3,-90.26 198.82,-200.55 -0.48,-110.28 -90.27,-199.3 -200.55,-198.82z"/>
    <path id="_106" class="fil86" d="M304.07 -43.17c109.77,-0.48 199.14,88.12 199.61,197.89 0.48,109.76 -88.12,199.13 -197.88,199.61 -109.77,0.47 -199.14,-88.12 -199.62,-197.89 -0.47,-109.77 88.13,-199.13 197.89,-199.61zm-0.01 -2.81c-111.32,0.48 -201.17,91.11 -200.69,202.43 0.49,111.32 91.12,201.17 202.44,200.69 111.32,-0.48 201.17,-91.12 200.68,-202.44 -0.48,-111.32 -91.11,-201.17 -202.43,-200.68z"/>
    <path id="_107" class="fil87" d="M304.06 -45.04c110.8,-0.49 201.02,88.95 201.5,199.75 0.48,110.8 -88.95,201.01 -199.76,201.49 -110.8,0.48 -201.01,-88.95 -201.49,-199.75 -0.48,-110.8 88.95,-201.01 199.75,-201.49zm-0.01 -2.82c-112.35,0.49 -203.04,91.97 -202.55,204.32 0.49,112.36 91.96,203.04 204.32,202.55 112.35,-0.48 203.04,-91.96 202.55,-204.31 -0.49,-112.36 -91.97,-203.05 -204.32,-202.56z"/>
    <path id="_108" class="fil88" d="M304.06 -46.92c111.83,-0.49 202.89,89.78 203.37,201.62 0.49,111.84 -89.78,202.89 -201.62,203.38 -111.83,0.48 -202.89,-89.79 -203.37,-201.62 -0.49,-111.84 89.78,-202.89 201.62,-203.38zm-0.02 -2.81c-113.39,0.49 -204.91,92.81 -204.42,206.2 0.49,113.39 92.81,204.91 206.2,204.42 113.39,-0.49 204.92,-92.81 204.42,-206.2 -0.49,-113.39 -92.81,-204.92 -206.2,-204.42z"/>
    <path id="_109" class="fil89" d="M304.05 -48.8c112.87,-0.49 204.77,90.62 205.26,203.49 0.49,112.87 -90.62,204.77 -203.49,205.26 -112.87,0.49 -204.77,-90.61 -205.26,-203.48 -0.49,-112.88 90.61,-204.78 203.49,-205.27zm-0.02 -2.81c-114.42,0.5 -206.78,93.66 -206.28,208.09 0.49,114.42 93.66,206.78 208.08,206.28 114.43,-0.49 206.79,-93.66 206.29,-208.08 -0.5,-114.43 -93.66,-206.78 -208.09,-206.29z"/>
    <path id="_110" class="fil90" d="M304.04 -50.67c113.91,-0.49 206.65,91.45 207.14,205.35 0.5,113.91 -91.44,206.65 -205.35,207.15 -113.91,0.49 -206.65,-91.45 -207.15,-205.36 -0.49,-113.91 91.45,-206.65 205.36,-207.14zm-0.01 -2.81c-115.46,0.5 -208.66,94.5 -208.16,209.97 0.5,115.46 94.51,208.65 209.97,208.15 115.46,-0.5 208.66,-94.51 208.15,-209.97 -0.5,-115.46 -94.5,-208.65 -209.96,-208.15z"/>
    <path id="_111" class="fil91" d="M304.03 -52.54c114.94,-0.5 208.53,92.27 209.03,207.22 0.5,114.94 -92.28,208.52 -207.22,209.02 -114.95,0.5 -208.53,-92.27 -209.03,-207.22 -0.5,-114.94 92.28,-208.53 207.22,-209.02zm-0.01 -2.82c-116.5,0.51 -210.53,95.36 -210.02,211.85 0.5,116.5 95.35,210.53 211.85,210.02 116.5,-0.5 210.52,-95.35 210.02,-211.85 -0.51,-116.49 -95.35,-210.52 -211.85,-210.02z"/>
    <path id="_112" class="fil92" d="M304.02 -54.42c115.98,-0.5 210.41,93.11 210.91,209.09 0.5,115.98 -93.11,210.4 -209.09,210.91 -115.97,0.5 -210.4,-93.11 -210.9,-209.09 -0.51,-115.98 93.1,-210.41 209.08,-210.91zm-0.01 -2.81c-117.53,0.51 -212.4,96.2 -211.89,213.73 0.51,117.53 96.21,212.4 213.74,211.89 117.53,-0.51 212.4,-96.2 211.88,-213.73 -0.51,-117.54 -96.2,-212.4 -213.73,-211.89z"/>
    <path id="_113" class="fil93" d="M304.01 -56.29c117.02,-0.51 212.29,93.94 212.8,210.95 0.5,117.01 -93.94,212.28 -210.96,212.79 -117.01,0.51 -212.28,-93.94 -212.79,-210.95 -0.51,-117.02 93.94,-212.29 210.95,-212.79zm-0.01 -2.82c-118.57,0.52 -214.27,97.05 -213.75,215.62 0.51,118.57 97.05,214.27 215.62,213.75 118.56,-0.51 214.26,-97.05 213.75,-215.61 -0.52,-118.57 -97.05,-214.27 -215.62,-213.76z"/>
    <path id="_114" class="fil94" d="M304.01 -58.17c118.05,-0.51 214.16,94.77 214.67,212.82 0.51,118.05 -94.77,214.16 -212.82,214.68 -118.05,0.51 -214.16,-94.77 -214.67,-212.82 -0.52,-118.05 94.77,-214.17 212.82,-214.68zm-0.02 -2.81c-119.6,0.52 -216.14,97.89 -215.62,217.5 0.52,119.6 97.9,216.14 217.5,215.62 119.61,-0.52 216.14,-97.9 215.62,-217.5 -0.52,-119.61 -97.89,-216.14 -217.5,-215.62z"/>
    <path id="_115" class="fil95" d="M304 -60.05c119.08,-0.51 216.04,95.61 216.56,214.69 0.51,119.09 -95.61,216.04 -214.69,216.56 -119.09,0.52 -216.04,-95.6 -216.56,-214.69 -0.52,-119.08 95.6,-216.04 214.69,-216.56zm-0.01 -2.81c-120.64,0.53 -218.02,98.75 -217.49,219.39 0.52,120.63 98.74,218.01 219.38,217.48 120.64,-0.52 218.01,-98.74 217.49,-219.38 -0.52,-120.64 -98.74,-218.01 -219.38,-217.49z"/>
    <path id="_116" class="fil96" d="M303.99 -61.92c120.12,-0.52 217.92,96.43 218.44,216.55 0.52,120.13 -96.43,217.92 -216.55,218.45 -120.12,0.52 -217.92,-96.44 -218.44,-216.56 -0.53,-120.12 96.43,-217.92 216.55,-218.44zm-0.01 -2.81c-121.68,0.52 -219.89,99.59 -219.36,221.26 0.53,121.68 99.6,219.89 221.27,219.36 121.67,-0.53 219.88,-99.59 219.35,-221.27 -0.52,-121.67 -99.59,-219.88 -221.26,-219.35z"/>
    <path id="_117" class="fil97" d="M303.98 -63.79c121.16,-0.53 219.8,97.26 220.33,218.42 0.52,121.15 -97.27,219.8 -218.42,220.32 -121.16,0.53 -219.8,-97.26 -220.33,-218.42 -0.53,-121.16 97.27,-219.8 218.42,-220.32zm-0.01 -2.82c-122.71,0.53 -221.75,100.44 -221.22,223.15 0.53,122.71 100.44,221.76 223.15,221.22 122.71,-0.53 221.75,-100.44 221.22,-223.15 -0.53,-122.71 -100.44,-221.75 -223.15,-221.22z"/>
    <path id="_118" class="fil98" d="M303.97 -65.67c122.2,-0.53 221.68,98.1 222.21,220.29 0.53,122.19 -98.09,221.68 -220.29,222.21 -122.19,0.53 -221.68,-98.1 -222.2,-220.29 -0.53,-122.19 98.09,-221.68 220.28,-222.21zm-0.01 -2.81c-123.74,0.53 -223.62,101.28 -223.09,225.03 0.54,123.75 101.29,223.63 225.04,223.09 123.74,-0.54 223.62,-101.29 223.08,-225.03 -0.53,-123.75 -101.28,-223.63 -225.03,-223.09z"/>
    <path id="_119" class="fil99" d="M303.97 -67.55c123.22,-0.53 223.55,98.93 224.09,222.16 0.53,123.23 -98.93,223.56 -222.16,224.09 -123.23,0.54 -223.56,-98.93 -224.09,-222.15 -0.53,-123.23 98.93,-223.56 222.16,-224.1zm-0.02 -2.81c-124.78,0.54 -225.49,102.14 -224.95,226.92 0.54,124.78 102.13,225.5 226.91,224.95 124.78,-0.54 225.5,-102.13 224.96,-226.91 -0.54,-124.78 -102.14,-225.5 -226.92,-224.96z"/>
    <path id="_120" class="fil100" d="M303.96 -69.42c124.26,-0.54 225.43,99.76 225.97,224.02 0.54,124.26 -99.76,225.44 -224.02,225.98 -124.26,0.54 -225.44,-99.76 -225.98,-224.03 -0.53,-124.26 99.76,-225.43 224.03,-225.97zm-0.01 -2.81c-125.82,0.54 -227.37,102.98 -226.83,228.8 0.55,125.81 102.99,227.37 228.8,226.82 125.82,-0.55 227.37,-102.98 226.82,-228.8 -0.54,-125.82 -102.98,-227.37 -228.79,-226.82z"/>
    <path id="_121" class="fil101" d="M303.95 -71.29c125.3,-0.55 227.31,100.59 227.86,225.88 0.54,125.3 -100.59,227.32 -225.89,227.86 -125.3,0.55 -227.32,-100.59 -227.86,-225.89 -0.54,-125.3 100.59,-227.31 225.89,-227.85zm-0.01 -2.82c-126.86,0.55 -229.24,103.83 -228.69,230.69 0.55,126.85 103.83,229.23 230.68,228.68 126.85,-0.55 229.24,-103.83 228.69,-230.68 -0.55,-126.85 -103.83,-229.24 -230.68,-228.69z"/>
    <path id="_122" class="fil102" d="M303.94 -73.17c126.34,-0.55 229.19,101.42 229.74,227.76 0.55,126.33 -101.42,229.19 -227.75,229.74 -126.34,0.54 -229.2,-101.43 -229.74,-227.76 -0.55,-126.33 101.42,-229.19 227.75,-229.74zm-0.01 -2.81c-127.89,0.55 -231.11,104.68 -230.56,232.56 0.56,127.89 104.68,231.11 232.57,230.56 127.89,-0.56 231.11,-104.68 230.55,-232.57 -0.55,-127.88 -104.67,-231.11 -232.56,-230.55z"/>
    <path id="_123" class="fil103" d="M303.93 -75.05c127.37,-0.55 231.07,102.26 231.63,229.63 0.55,127.37 -102.26,231.07 -229.63,231.62 -127.37,0.55 -231.07,-102.25 -231.62,-229.62 -0.55,-127.37 102.25,-231.07 229.62,-231.63zm-0.01 -2.81c-128.92,0.56 -232.98,105.53 -232.42,234.45 0.56,128.92 105.52,232.98 234.45,232.42 128.92,-0.56 232.98,-105.52 232.42,-234.44 -0.56,-128.93 -105.53,-232.99 -234.45,-232.43z"/>
    <path id="_124" class="fil104" d="M303.92 -76.92c128.41,-0.56 232.95,103.08 233.51,231.49 0.56,128.4 -103.08,232.95 -231.49,233.51 -128.4,0.55 -232.95,-103.09 -233.51,-231.49 -0.55,-128.41 103.09,-232.95 231.49,-233.51zm-0.01 -2.81c-129.96,0.56 -234.85,106.37 -234.29,236.33 0.57,129.96 106.38,234.85 236.33,234.29 129.96,-0.56 234.86,-106.37 234.29,-236.33 -0.56,-129.96 -106.37,-234.86 -236.33,-234.29z"/>
    <path id="_125" class="fil105" d="M303.92 -78.79c129.44,-0.57 234.83,103.91 235.39,233.35 0.56,129.44 -103.92,234.83 -233.36,235.39 -129.44,0.56 -234.83,-103.91 -235.39,-233.35 -0.56,-129.45 103.92,-234.83 233.36,-235.39zm-0.02 -2.82c-130.99,0.57 -236.72,107.22 -236.15,238.22 0.57,130.99 107.22,236.72 238.21,236.15 131,-0.56 236.73,-107.22 236.16,-238.21 -0.57,-130.99 -107.22,-236.73 -238.22,-236.16z"/>
    <path id="_126" class="fil106" d="M303.91 -80.67c130.48,-0.57 236.71,104.75 237.27,235.22 0.57,130.48 -104.74,236.71 -235.22,237.28 -130.48,0.56 -236.71,-104.75 -237.27,-235.23 -0.57,-130.47 104.74,-236.7 235.22,-237.27zm-0.01 -2.81c-132.03,0.57 -238.6,108.07 -238.03,240.1 0.58,132.03 108.07,238.59 240.1,238.02 132.03,-0.57 238.6,-108.07 238.02,-240.1 -0.57,-132.03 -108.06,-238.6 -240.09,-238.02z"/>
    <path id="_127" class="fil107" d="M303.9 -82.54c131.51,-0.58 238.59,105.57 239.16,237.09 0.57,131.51 -105.58,238.58 -237.09,239.15 -131.51,0.57 -238.59,-105.58 -239.16,-237.09 -0.57,-131.51 105.58,-238.58 237.09,-239.15zm-0.01 -2.82c-133.07,0.58 -240.47,108.92 -239.89,241.98 0.58,133.07 108.91,240.47 241.98,239.89 133.06,-0.57 240.47,-108.91 239.89,-241.98 -0.58,-133.06 -108.92,-240.46 -241.98,-239.89z"/>
    <path id="_128" class="fil108" d="M303.89 -84.42c132.55,-0.57 240.47,106.41 241.04,238.96 0.58,132.54 -106.41,240.46 -238.95,241.04 -132.55,0.57 -240.47,-106.41 -241.04,-238.96 -0.58,-132.55 106.41,-240.46 238.95,-241.04zm-0.01 -2.81c-134.1,0.58 -242.34,109.76 -241.76,243.86 0.59,134.1 109.77,242.34 243.87,241.76 134.1,-0.58 242.34,-109.76 241.75,-243.87 -0.58,-134.1 -109.76,-242.33 -243.86,-241.75z"/>
    <path id="_129" class="fil109" d="M303.88 -86.3c133.59,-0.57 242.35,107.25 242.93,240.83 0.58,133.58 -107.24,242.34 -240.83,242.92 -133.58,0.58 -242.34,-107.24 -242.92,-240.82 -0.58,-133.59 107.24,-242.34 240.82,-242.93zm-0.01 -2.81c-135.13,0.59 -244.21,110.61 -243.62,245.75 0.58,135.14 110.61,244.21 245.75,243.62 135.13,-0.58 244.21,-110.61 243.62,-245.74 -0.59,-135.14 -110.61,-244.21 -245.75,-243.63z"/>
    <path id="_130" class="fil110" d="M303.88 -88.17c134.61,-0.58 244.22,108.07 244.8,242.69 0.59,134.62 -108.07,244.22 -242.69,244.81 -134.62,0.58 -244.22,-108.08 -244.8,-242.69 -0.59,-134.62 108.07,-244.23 242.69,-244.81zm-0.02 -2.81c-136.17,0.59 -246.08,111.46 -245.49,247.63 0.59,136.17 111.46,246.08 247.63,245.49 136.17,-0.59 246.09,-111.46 245.49,-247.63 -0.59,-136.17 -111.45,-246.08 -247.63,-245.49z"/>
    <path id="_131" class="fil111" d="M303.87 -90.04c135.65,-0.59 246.1,108.9 246.69,244.55 0.59,135.66 -108.91,246.1 -244.56,246.69 -135.65,0.59 -246.1,-108.9 -246.69,-244.56 -0.59,-135.65 108.9,-246.1 244.56,-246.68zm-0.01 -2.82c-137.21,0.6 -247.96,112.31 -247.36,249.52 0.59,137.2 112.3,247.95 249.51,247.35 137.21,-0.59 247.95,-112.3 247.36,-249.51 -0.6,-137.21 -112.31,-247.95 -249.51,-247.36z"/>
    <path id="_132" class="fil112" d="M303.86 -91.92c136.69,-0.59 247.98,109.73 248.57,246.42 0.59,136.69 -109.73,247.98 -246.42,248.58 -136.69,0.59 -247.98,-109.74 -248.57,-246.43 -0.6,-136.69 109.73,-247.98 246.42,-248.57zm-0.01 -2.81c-138.24,0.6 -249.83,113.15 -249.23,251.39 0.6,138.25 113.16,249.83 251.4,249.23 138.24,-0.6 249.82,-113.16 249.22,-251.4 -0.6,-138.24 -113.15,-249.82 -251.39,-249.22z"/>
    <path id="_133" class="fil113" d="M303.85 -93.8c137.73,-0.59 249.86,110.57 250.46,248.3 0.59,137.72 -110.57,249.85 -248.29,250.45 -137.73,0.6 -249.86,-110.56 -250.46,-248.29 -0.6,-137.72 110.57,-249.86 248.29,-250.46zm-0.01 -2.81c-139.28,0.61 -251.7,114 -251.09,253.28 0.6,139.28 114,251.7 253.28,251.09 139.28,-0.6 251.69,-114 251.09,-253.28 -0.61,-139.27 -114,-251.69 -253.28,-251.09z"/>
    <path id="_134" class="fil114" d="M303.84 -95.67c138.76,-0.6 251.74,111.4 252.34,250.16 0.6,138.76 -111.4,251.73 -250.16,252.34 -138.76,0.6 -251.73,-111.4 -252.33,-250.16 -0.61,-138.76 111.39,-251.74 250.15,-252.34zm-0.01 -2.81c-140.31,0.61 -253.57,114.85 -252.96,255.16 0.61,140.31 114.85,253.57 255.17,252.96 140.31,-0.61 253.56,-114.85 252.95,-255.16 -0.6,-140.32 -114.84,-253.57 -255.16,-252.96z"/>
    <path id="_135" class="fil115" d="M303.84 -97.54c139.79,-0.61 253.61,112.22 254.22,252.02 0.6,139.8 -112.23,253.62 -252.03,254.22 -139.79,0.61 -253.61,-112.23 -254.22,-252.02 -0.61,-139.8 112.23,-253.62 252.03,-254.22zm-0.02 -2.82c-141.35,0.62 -255.44,115.7 -254.82,257.05 0.61,141.35 115.7,255.44 257.04,254.82 141.35,-0.61 255.44,-115.69 254.83,-257.04 -0.61,-141.35 -115.7,-255.44 -257.05,-254.83z"/>
    <path id="_136" class="fil116" d="M303.83 -99.42c140.83,-0.61 255.49,113.06 256.1,253.89 0.61,140.83 -113.06,255.5 -253.89,256.11 -140.83,0.61 -255.49,-113.06 -256.1,-253.9 -0.62,-140.83 113.06,-255.49 253.89,-256.1zm-0.02 -2.81c-142.38,0.62 -257.31,116.54 -256.69,258.93 0.62,142.38 116.55,257.31 258.93,256.69 142.39,-0.62 257.31,-116.55 256.69,-258.93 -0.61,-142.39 -116.54,-257.31 -258.93,-256.69z"/>
    <path id="_137" class="fil117" d="M303.82 -101.29c141.87,-0.62 257.37,113.89 257.99,255.75 0.61,141.87 -113.9,257.38 -255.76,257.99 -141.87,0.62 -257.37,-113.89 -257.99,-255.76 -0.62,-141.86 113.89,-257.37 255.76,-257.98zm-0.01 -2.82c-143.42,0.62 -259.18,117.39 -258.56,260.82 0.62,143.42 117.39,259.18 260.81,258.55 143.42,-0.62 259.18,-117.39 258.56,-260.81 -0.62,-143.42 -117.39,-259.18 -260.81,-258.56z"/>
    <path id="_138" class="fil118" d="M303.81 -103.17c142.9,-0.62 259.25,114.72 259.87,257.63 0.62,142.9 -114.72,259.25 -257.62,259.87 -142.91,0.62 -259.25,-114.73 -259.87,-257.63 -0.62,-142.9 114.72,-259.25 257.62,-259.87zm-0.01 -2.81c-144.46,0.62 -261.05,118.24 -260.43,262.69 0.63,144.46 118.24,261.06 262.7,260.43 144.45,-0.63 261.05,-118.24 260.42,-262.7 -0.62,-144.45 -118.24,-261.05 -262.69,-260.42z"/>
    <path id="_139" class="fil119" d="M303.8 -105.04c143.94,-0.63 261.13,115.55 261.76,259.49 0.62,143.94 -115.56,261.13 -259.5,261.75 -143.93,0.63 -261.13,-115.55 -261.75,-259.49 -0.62,-143.94 115.55,-261.13 259.49,-261.75zm-0.01 -2.82c-145.49,0.63 -262.92,119.09 -262.29,264.58 0.63,145.49 119.09,262.93 264.58,262.29 145.49,-0.63 262.92,-119.08 262.29,-264.57 -0.63,-145.5 -119.09,-262.93 -264.58,-262.3z"/>
    <path id="_140" class="fil120" d="M303.79 -106.92c144.98,-0.63 263.01,116.39 263.64,261.36 0.63,144.97 -116.38,263.01 -261.36,263.64 -144.97,0.62 -263.01,-116.39 -263.63,-261.36 -0.63,-144.98 116.38,-263.01 261.35,-263.64zm-0.01 -2.81c-146.52,0.63 -264.79,119.93 -264.16,266.46 0.64,146.53 119.94,264.8 266.46,264.16 146.53,-0.64 264.8,-119.94 264.16,-266.46 -0.63,-146.53 -119.93,-264.8 -266.46,-264.16z"/>
    <path id="_141" class="fil121" d="M303.79 -108.79c146.01,-0.64 264.88,117.21 265.52,263.22 0.63,146.01 -117.22,264.89 -263.23,265.52 -146.01,0.64 -264.89,-117.22 -265.52,-263.22 -0.63,-146.01 117.22,-264.89 263.23,-265.52zm-0.02 -2.82c-147.56,0.64 -266.66,120.78 -266.02,268.35 0.64,147.56 120.78,266.66 268.34,266.02 147.57,-0.64 266.67,-120.78 266.03,-268.34 -0.64,-147.56 -120.78,-266.67 -268.35,-266.03z"/>
    <path id="_142" class="fil122" d="M303.78 -110.67c147.04,-0.64 266.76,118.05 267.4,265.09 0.64,147.05 -118.05,266.77 -265.09,267.41 -147.05,0.63 -266.77,-118.05 -267.4,-265.1 -0.64,-147.04 118.04,-266.76 265.09,-267.4zm-0.01 -2.81c-148.6,0.64 -268.54,121.63 -267.9,270.23 0.65,148.59 121.63,268.53 270.23,267.89 148.6,-0.65 268.54,-121.63 267.89,-270.23 -0.64,-148.6 -121.63,-268.54 -270.22,-267.89z"/>
    <path id="_143" class="fil123" d="M303.77 -112.54c148.08,-0.65 268.64,118.88 269.29,266.96 0.64,148.07 -118.88,268.64 -266.96,269.28 -148.08,0.64 -268.65,-118.88 -269.29,-266.96 -0.64,-148.08 118.88,-268.64 266.96,-269.28zm-0.01 -2.82c-149.64,0.65 -270.41,122.48 -269.76,272.11 0.65,149.64 122.48,270.41 272.11,269.76 149.63,-0.65 270.41,-122.47 269.76,-272.11 -0.65,-149.63 -122.48,-270.41 -272.11,-269.76z"/>
    <path id="_144" class="fil124" d="M303.76 -114.42c149.12,-0.65 270.52,119.71 271.17,268.83 0.65,149.11 -119.71,270.52 -268.82,271.17 -149.12,0.64 -270.53,-119.71 -271.17,-268.83 -0.65,-149.12 119.71,-270.52 268.82,-271.17zm-0.01 -2.81c-150.67,0.65 -272.28,123.32 -271.63,273.99 0.66,150.67 123.33,272.28 274,271.63 150.67,-0.66 272.28,-123.33 271.62,-274 -0.65,-150.66 -123.32,-272.28 -273.99,-271.62z"/>
    <path id="_145" class="fil125" d="M303.75 -116.29c150.16,-0.66 272.4,120.54 273.06,270.69 0.65,150.15 -120.55,272.4 -270.7,273.05 -150.15,0.65 -272.4,-120.54 -273.05,-270.69 -0.65,-150.15 120.54,-272.4 270.69,-273.05zm-0.01 -2.82c-151.7,0.66 -274.15,124.18 -273.49,275.88 0.66,151.71 124.17,274.15 275.88,273.49 151.7,-0.65 274.15,-124.17 273.49,-275.87 -0.66,-151.71 -124.17,-274.16 -275.88,-273.5z"/>
    <path id="_146" class="fil126" d="M303.75 -118.17c151.18,-0.66 274.28,121.37 274.93,272.56 0.66,151.19 -121.37,274.28 -272.56,274.94 -151.18,0.65 -274.28,-121.38 -274.93,-272.56 -0.66,-151.19 121.37,-274.28 272.56,-274.94zm-0.02 -2.81c-152.74,0.66 -276.02,125.02 -275.36,277.76 0.67,152.74 125.02,276.02 277.76,275.36 152.74,-0.66 276.03,-125.02 275.36,-277.76 -0.66,-152.74 -125.02,-276.03 -277.76,-275.36z"/>
    <path id="_147" class="fil127" d="M303.74 -120.05c152.22,-0.66 276.16,122.21 276.82,274.43 0.66,152.22 -122.21,276.16 -274.43,276.82 -152.22,0.66 -276.16,-122.2 -276.82,-274.43 -0.66,-152.22 122.21,-276.15 274.43,-276.82zm-0.01 -2.81c-153.78,0.67 -277.9,125.87 -277.23,279.65 0.67,153.77 125.87,277.89 279.64,277.22 153.78,-0.66 277.9,-125.86 277.23,-279.64 -0.67,-153.78 -125.87,-277.89 -279.64,-277.23z"/>
    <path id="_148" class="fil128" d="M303.73 -121.92c153.26,-0.66 278.04,123.04 278.7,276.29 0.67,153.26 -123.03,278.04 -276.29,278.71 -153.26,0.66 -278.04,-123.04 -278.7,-276.3 -0.67,-153.26 123.03,-278.03 276.29,-278.7zm-0.01 -2.81c-154.81,0.67 -279.77,126.71 -279.1,281.52 0.68,154.82 126.72,279.77 281.53,279.1 154.81,-0.67 279.77,-126.72 279.09,-281.53 -0.67,-154.81 -126.71,-279.76 -281.52,-279.09z"/>
    <path id="_149" class="fil129" d="M303.72 -123.79c154.3,-0.67 279.92,123.86 280.59,278.16 0.67,154.29 -123.87,279.91 -278.16,280.58 -154.3,0.67 -279.92,-123.87 -280.59,-278.16 -0.67,-154.29 123.87,-279.91 278.16,-280.58zm-0.01 -2.82c-155.85,0.68 -281.64,127.57 -280.96,283.41 0.67,155.85 127.56,281.64 283.41,280.96 155.84,-0.67 281.64,-127.56 280.96,-283.41 -0.68,-155.84 -127.56,-281.63 -283.41,-280.96z"/>
    <path id="_150" class="fil130" d="M303.71 -125.67c155.33,-0.67 281.8,124.7 282.47,280.03 0.67,155.33 -124.7,281.79 -280.03,282.47 -155.32,0.67 -281.79,-124.7 -282.46,-280.03 -0.68,-155.33 124.69,-281.8 280.02,-282.47zm-0.01 -2.81c-156.88,0.68 -283.51,128.41 -282.83,285.29 0.68,156.88 128.41,283.51 285.3,282.83 156.88,-0.68 283.51,-128.41 282.82,-285.29 -0.68,-156.89 -128.41,-283.51 -285.29,-282.83z"/>
    <path id="_151" class="fil131" d="M303.71 -127.54c156.36,-0.68 283.67,125.53 284.35,281.89 0.68,156.36 -125.53,283.67 -281.9,284.35 -156.36,0.68 -283.67,-125.53 -284.35,-281.89 -0.68,-156.37 125.53,-283.68 281.9,-284.35zm-0.02 -2.82c-157.92,0.69 -285.38,129.26 -284.69,287.18 0.68,157.92 129.26,285.38 287.17,284.69 157.92,-0.68 285.38,-129.26 284.7,-287.17 -0.69,-157.92 -129.26,-285.38 -287.18,-284.7z"/>
    <path id="_152" class="fil132" d="M303.7 -129.42c157.4,-0.68 285.55,126.36 286.23,283.76 0.68,157.4 -126.36,285.55 -283.76,286.24 -157.4,0.68 -285.55,-126.37 -286.23,-283.76 -0.69,-157.41 126.36,-285.56 283.76,-286.24zm-0.02 -2.81c-158.95,0.69 -287.25,130.1 -286.56,289.06 0.69,158.95 130.11,287.25 289.06,286.56 158.96,-0.69 287.25,-130.11 286.56,-289.06 -0.69,-158.95 -130.1,-287.25 -289.06,-286.56z"/>
    <path id="_153" class="fil133" d="M303.69 -131.29c158.43,-0.69 287.43,127.19 288.12,285.62 0.68,158.44 -127.2,287.43 -285.63,288.12 -158.44,0.69 -287.43,-127.19 -288.12,-285.63 -0.69,-158.43 127.19,-287.43 285.63,-288.11zm-0.01 -2.82c-159.99,0.7 -289.13,130.96 -288.43,290.95 0.69,159.98 130.95,289.12 290.94,288.42 159.99,-0.69 289.12,-130.95 288.43,-290.94 -0.69,-159.99 -130.95,-289.12 -290.94,-288.43z"/>
    <path id="_154" class="fil134" d="M303.68 -133.17c159.47,-0.69 289.31,128.02 290,287.5 0.69,159.47 -128.02,289.3 -287.49,290 -159.48,0.69 -289.31,-128.03 -290,-287.5 -0.7,-159.47 128.02,-289.31 287.49,-290zm-0.01 -2.81c-161.03,0.7 -291,131.8 -290.3,292.82 0.7,161.03 131.8,291 292.83,290.3 161.02,-0.7 290.99,-131.8 290.29,-292.83 -0.69,-161.02 -131.8,-290.99 -292.82,-290.29z"/>
    <path id="_155" class="fil135" d="M303.67 -135.04c160.51,-0.7 291.19,128.85 291.89,289.36 0.69,160.5 -128.86,291.19 -289.37,291.88 -160.5,0.7 -291.18,-128.85 -291.88,-289.36 -0.7,-160.51 128.86,-291.19 289.36,-291.88zm-0.01 -2.82c-162.06,0.71 -292.86,132.65 -292.16,294.71 0.7,162.06 132.65,292.87 294.71,292.16 162.06,-0.7 292.86,-132.65 292.16,-294.7 -0.7,-162.06 -132.65,-292.87 -294.71,-292.17z"/>
    <path id="_156" class="fil136" d="M303.66 -136.92c161.55,-0.7 293.07,129.69 293.77,291.23 0.7,161.54 -129.68,293.07 -291.23,293.77 -161.54,0.7 -293.06,-129.69 -293.76,-291.23 -0.7,-161.54 129.68,-293.07 291.22,-293.77zm-0.01 -2.81c-163.09,0.71 -294.73,133.49 -294.03,296.59 0.71,163.09 133.5,294.74 296.6,294.03 163.09,-0.71 294.73,-133.5 294.02,-296.59 -0.7,-163.1 -133.49,-294.74 -296.59,-294.03z"/>
    <path id="_157" class="fil137" d="M303.66 -138.79c162.57,-0.71 294.94,130.51 295.65,293.09 0.7,162.58 -130.52,294.95 -293.1,295.65 -162.58,0.71 -294.94,-130.52 -295.65,-293.09 -0.7,-162.58 130.52,-294.95 293.1,-295.65zm-0.02 -2.82c-164.13,0.72 -296.6,134.35 -295.89,298.48 0.71,164.13 134.34,296.61 298.47,295.89 164.13,-0.71 296.61,-134.34 295.9,-298.47 -0.71,-164.13 -134.34,-296.61 -298.48,-295.9z"/>
    <path id="_158" class="fil138" d="M303.65 -140.67c163.61,-0.71 296.82,131.35 297.53,294.96 0.71,163.62 -131.35,296.83 -294.96,297.54 -163.61,0.71 -296.82,-131.35 -297.53,-294.97 -0.71,-163.61 131.34,-296.82 294.96,-297.53zm-0.01 -2.81c-165.17,0.71 -298.48,135.19 -297.77,300.36 0.72,165.16 135.2,298.48 300.36,297.76 165.17,-0.72 298.48,-135.19 297.76,-300.36 -0.71,-165.17 -135.19,-298.48 -300.35,-297.76z"/>
    <path id="_159" class="fil139" d="M303.64 -142.54c164.65,-0.72 298.7,132.18 299.42,296.82 0.71,164.65 -132.18,298.71 -296.83,299.42 -164.65,0.72 -298.7,-132.18 -299.42,-296.83 -0.71,-164.65 132.18,-298.7 296.83,-299.41zm-0.01 -2.82c-166.2,0.72 -300.35,136.04 -299.63,302.24 0.72,166.21 136.04,300.35 302.24,299.63 166.2,-0.72 300.35,-136.03 299.63,-302.24 -0.72,-166.2 -136.04,-300.35 -302.24,-299.63z"/>
    <path id="_160" class="fil140" d="M303.63 -144.42c165.69,-0.72 300.58,133.01 301.3,298.7 0.72,165.68 -133.01,300.58 -298.69,301.3 -165.69,0.71 -300.59,-133.02 -301.3,-298.7 -0.72,-165.68 133.01,-300.58 298.69,-301.3zm-0.01 -2.81c-167.24,0.72 -302.22,136.88 -301.5,304.12 0.73,167.24 136.89,302.22 304.13,301.5 167.24,-0.73 302.22,-136.89 301.49,-304.13 -0.72,-167.23 -136.88,-302.22 -304.12,-301.49z"/>
    <path id="_161" class="fil141" d="M303.62 -146.29c166.72,-0.73 302.46,133.84 303.19,300.56 0.72,166.72 -133.85,302.46 -300.57,303.18 -166.72,0.72 -302.46,-133.84 -303.18,-300.56 -0.72,-166.72 133.84,-302.46 300.56,-303.18zm-0.01 -2.82c-168.27,0.73 -304.09,137.74 -303.36,306.01 0.73,168.27 137.73,304.09 306.01,303.36 168.27,-0.73 304.09,-137.73 303.36,-306 -0.73,-168.28 -137.74,-304.1 -306.01,-303.37z"/>
    <path id="_162" class="fil142" d="M303.62 -148.17c167.75,-0.73 304.33,134.68 305.06,302.43 0.73,167.76 -134.67,304.34 -302.43,305.07 -167.75,0.72 -304.34,-134.68 -305.06,-302.43 -0.73,-167.76 134.67,-304.34 302.43,-305.07zm-0.02 -2.81c-169.3,0.73 -305.96,138.58 -305.23,307.89 0.74,169.31 138.58,305.96 307.89,305.23 169.31,-0.74 305.97,-138.58 305.23,-307.89 -0.73,-169.31 -138.58,-305.97 -307.89,-305.23z"/>
    <path id="_163" class="fil143" d="M303.61 -150.04c168.79,-0.74 306.21,135.5 306.95,304.29 0.73,168.79 -135.51,306.22 -304.3,306.95 -168.79,0.73 -306.22,-135.5 -306.95,-304.3 -0.73,-168.79 135.51,-306.21 304.3,-306.94zm-0.01 -2.82c-170.35,0.74 -307.84,139.43 -307.1,309.78 0.74,170.34 139.43,307.83 309.77,307.09 170.35,-0.74 307.84,-139.43 307.1,-309.77 -0.74,-170.34 -139.43,-307.84 -309.77,-307.1z"/>
    <path id="_164" class="fil144" d="M303.6 -151.92c169.83,-0.74 308.09,136.34 308.83,306.16 0.74,169.83 -136.34,308.1 -306.16,308.84 -169.83,0.73 -308.1,-136.34 -308.83,-306.17 -0.74,-169.82 136.33,-308.09 306.16,-308.83zm-0.01 -2.81c-171.38,0.74 -309.71,140.28 -308.97,311.66 0.75,171.37 140.28,309.7 311.66,308.96 171.38,-0.75 309.71,-140.28 308.96,-311.66 -0.74,-171.38 -140.27,-309.71 -311.65,-308.96z"/>
    <path id="_165" class="fil145" d="M303.59 -153.79c170.86,-0.75 309.97,137.16 310.72,308.03 0.74,170.86 -137.17,309.97 -308.03,310.71 -170.87,0.74 -309.98,-137.17 -310.72,-308.03 -0.74,-170.86 137.17,-309.97 308.03,-310.71zm-0.01 -2.82c-172.42,0.75 -311.58,141.13 -310.83,313.54 0.75,172.42 141.12,311.58 313.54,310.83 172.41,-0.74 311.58,-141.12 310.83,-313.54 -0.75,-172.41 -141.13,-311.57 -313.54,-310.83z"/>
    <path id="_166" class="fil146" d="M303.58 -155.67c171.9,-0.74 311.86,138 312.6,309.9 0.75,171.89 -138,311.85 -309.9,312.6 -171.89,0.74 -311.85,-138 -312.59,-309.9 -0.75,-171.9 138,-311.85 309.89,-312.6zm-0.01 -2.81c-173.45,0.75 -313.45,141.97 -312.7,315.42 0.76,173.45 141.98,313.45 315.43,312.7 173.45,-0.75 313.45,-141.97 312.69,-315.42 -0.75,-173.46 -141.97,-313.45 -315.42,-312.7z"/>
    <path id="_167" class="fil147" d="M303.57 -157.54c172.94,-0.75 313.74,138.83 314.49,311.76 0.75,172.93 -138.84,313.73 -311.77,314.48 -172.93,0.75 -313.73,-138.83 -314.48,-311.76 -0.75,-172.94 138.83,-313.73 311.76,-314.48zm-0.01 -2.82c-174.48,0.76 -315.32,142.82 -314.56,317.31 0.76,174.49 142.82,315.32 317.3,314.56 174.49,-0.75 315.33,-142.82 314.57,-317.3 -0.76,-174.49 -142.82,-315.32 -317.31,-314.57z"/>
    <path id="_168" class="fil148" d="M303.57 -159.42c173.97,-0.75 315.61,139.66 316.36,313.63 0.76,173.97 -139.66,315.61 -313.63,316.37 -173.97,0.75 -315.61,-139.67 -316.36,-313.63 -0.76,-173.97 139.66,-315.61 313.63,-316.37zm-0.02 -2.81c-175.52,0.76 -317.19,143.67 -316.43,319.19 0.77,175.52 143.67,317.19 319.19,316.43 175.52,-0.76 317.2,-143.67 316.43,-319.19 -0.76,-175.52 -143.66,-317.19 -319.19,-316.43z"/>
    <path id="_169" class="fil149" d="M303.56 -161.29c175,-0.76 317.49,140.49 318.25,315.49 0.76,175.01 -140.5,317.49 -315.5,318.25 -175,0.76 -317.49,-140.49 -318.25,-315.5 -0.76,-175 140.49,-317.48 315.5,-318.24zm-0.01 -2.82c-176.56,0.77 -319.07,144.52 -318.3,321.08 0.76,176.55 144.51,319.06 321.07,318.29 176.56,-0.76 319.06,-144.51 318.3,-321.07 -0.77,-176.56 -144.52,-319.06 -321.07,-318.3z"/>
    <path id="_170" class="fil150" d="M303.55 -163.17c176.04,-0.76 319.37,141.33 320.13,317.37 0.76,176.04 -141.32,319.36 -317.36,320.13 -176.04,0.76 -319.37,-141.33 -320.13,-317.37 -0.77,-176.04 141.32,-319.36 317.36,-320.13zm-0.01 -2.81c-177.59,0.77 -320.94,145.36 -320.17,322.95 0.77,177.6 145.37,320.94 322.96,320.17 177.59,-0.77 320.93,-145.36 320.16,-322.96 -0.77,-177.59 -145.36,-320.93 -322.95,-320.16z"/>
    <path id="_171" class="fil151" d="M303.54 -165.04c177.08,-0.77 321.25,142.15 322.02,319.23 0.76,177.07 -142.16,321.24 -319.24,322.01 -177.07,0.77 -321.24,-142.16 -322.01,-319.23 -0.77,-177.08 142.16,-321.25 319.23,-322.01zm-0.01 -2.82c-178.63,0.78 -322.81,146.21 -322.03,324.84 0.77,178.63 146.21,322.81 324.84,322.03 178.63,-0.77 322.8,-146.21 322.03,-324.84 -0.78,-178.62 -146.21,-322.8 -324.84,-322.03z"/>
    <path id="_172" class="fil152" d="M303.53 -166.92c178.11,-0.77 323.13,142.99 323.9,321.1 0.77,178.11 -142.99,323.12 -321.1,323.9 -178.11,0.77 -323.12,-142.99 -323.89,-321.1 -0.78,-178.11 142.98,-323.13 321.09,-323.9zm-0.01 -2.81c-179.66,0.78 -324.68,147.06 -323.9,326.72 0.78,179.66 147.06,324.68 326.73,323.9 179.66,-0.78 324.67,-147.06 323.89,-326.72 -0.78,-179.67 -147.05,-324.68 -326.72,-323.9z"/>
    <path id="_173" class="fil153" d="M303.53 -168.79c179.14,-0.78 325,143.81 325.78,322.96 0.77,179.15 -143.82,325 -322.97,325.78 -179.15,0.78 -325,-143.82 -325.78,-322.96 -0.78,-179.15 143.82,-325.01 322.97,-325.78zm-0.02 -2.82c-180.7,0.79 -326.55,147.91 -325.76,328.61 0.78,180.7 147.9,326.55 328.6,325.76 180.7,-0.78 326.55,-147.9 325.77,-328.6 -0.79,-180.7 -147.91,-326.55 -328.61,-325.77z"/>
    <path id="_174" class="fil154" d="M303.52 -170.67c180.18,-0.78 326.88,144.65 327.66,324.83 0.78,180.18 -144.65,326.88 -324.83,327.67 -180.18,0.78 -326.88,-144.66 -327.66,-324.84 -0.79,-180.18 144.65,-326.88 324.83,-327.66zm-0.01 -2.81c-181.74,0.79 -328.43,148.75 -327.64,330.49 0.79,181.73 148.76,328.42 330.49,327.63 181.74,-0.79 328.42,-148.76 327.63,-330.49 -0.78,-181.73 -148.75,-328.42 -330.48,-327.63z"/>
    <path id="_175" class="fil155" d="M303.51 -172.54c181.22,-0.79 328.76,145.48 329.55,326.69 0.78,181.22 -145.49,328.76 -326.7,329.55 -181.22,0.79 -328.76,-145.48 -329.55,-326.7 -0.79,-181.22 145.48,-328.76 326.7,-329.54zm-0.01 -2.82c-182.77,0.8 -330.29,149.6 -329.5,332.37 0.79,182.78 149.6,330.3 332.37,329.5 182.77,-0.79 330.29,-149.6 329.5,-332.37 -0.79,-182.77 -149.6,-330.29 -332.37,-329.5z"/>
    <path id="_176" class="fil156" d="M303.5 -174.42c182.25,-0.79 330.64,146.31 331.43,328.57 0.79,182.25 -146.31,330.64 -328.56,331.43 -182.26,0.79 -330.64,-146.32 -331.43,-328.57 -0.8,-182.25 146.31,-330.64 328.56,-331.43zm-0.01 -2.81c-183.81,0.8 -332.16,150.45 -331.37,334.25 0.8,183.81 150.45,332.17 334.26,331.37 183.8,-0.8 332.16,-150.45 331.36,-334.26 -0.79,-183.8 -150.44,-332.16 -334.25,-331.36z"/>
    <path id="_177" class="fil157" d="M303.49 -176.29c183.29,-0.8 332.52,147.14 333.32,330.43 0.79,183.29 -147.15,332.52 -330.44,333.31 -183.28,0.8 -332.51,-147.14 -333.31,-330.43 -0.79,-183.29 147.15,-332.52 330.43,-333.31zm-0.01 -2.82c-184.84,0.81 -334.03,151.3 -333.23,336.14 0.8,184.84 151.29,334.04 336.14,333.23 184.84,-0.8 334.03,-151.29 333.23,-336.13 -0.8,-184.84 -151.3,-334.04 -336.14,-333.24z"/>
    <path id="_178" class="fil158" d="M303.49 -178.17c184.32,-0.8 334.39,147.98 335.19,332.3 0.8,184.32 -147.97,334.4 -332.3,335.2 -184.32,0.8 -334.39,-147.98 -335.19,-332.3 -0.8,-184.33 147.97,-334.4 332.3,-335.2zm-0.02 -2.81c-185.87,0.8 -335.9,152.14 -335.1,338.02 0.81,185.88 152.15,335.91 338.02,335.1 185.88,-0.81 335.91,-152.14 335.1,-338.02 -0.8,-185.88 -152.14,-335.91 -338.02,-335.1z"/>
    <path id="_179" class="fil159" d="M303.48 -180.04c185.36,-0.81 336.27,148.8 337.08,334.16 0.8,185.36 -148.81,336.28 -334.17,337.08 -185.36,0.81 -336.27,-148.81 -337.08,-334.17 -0.8,-185.35 148.81,-336.27 334.17,-337.07zm-0.01 -2.82c-186.92,0.81 -337.78,152.99 -336.97,339.91 0.81,186.91 152.99,337.77 339.9,336.96 186.91,-0.81 337.78,-152.99 336.97,-339.9 -0.81,-186.91 -152.99,-337.78 -339.9,-336.97z"/>
    <path id="_180" class="fil160" d="M303.47 -181.92c186.39,-0.81 338.15,149.64 338.96,336.03 0.81,186.4 -149.64,338.16 -336.03,338.97 -186.4,0.8 -338.15,-149.64 -338.96,-336.04 -0.81,-186.39 149.63,-338.15 336.03,-338.96zm-0.01 -2.81c-187.95,0.81 -339.65,153.84 -338.84,341.79 0.82,187.94 153.84,339.64 341.79,338.83 187.95,-0.82 339.65,-153.84 338.83,-341.79 -0.81,-187.95 -153.83,-339.65 -341.78,-338.83z"/>
    <path id="_181" class="fil161" d="M303.46 -183.79c187.43,-0.82 340.03,150.47 340.85,337.9 0.81,187.43 -150.47,340.03 -337.9,340.84 -187.43,0.81 -340.04,-150.47 -340.85,-337.9 -0.81,-187.43 150.47,-340.03 337.9,-340.84zm-0.01 -2.82c-188.98,0.82 -341.52,154.69 -340.7,343.67 0.82,188.99 154.68,341.52 343.67,340.7 188.98,-0.82 341.52,-154.68 340.7,-343.67 -0.82,-188.98 -154.69,-341.52 -343.67,-340.7z"/>
    <path id="_182" class="fil162" d="M303.45 -185.67c188.47,-0.82 341.91,151.3 342.73,339.77 0.82,188.46 -151.3,341.91 -339.77,342.73 -188.46,0.81 -341.91,-151.31 -342.72,-339.77 -0.82,-188.47 151.3,-341.91 339.76,-342.73zm-0.01 -2.81c-190.02,0.82 -343.39,155.53 -342.57,345.55 0.83,190.02 155.54,343.39 345.56,342.57 190.02,-0.83 343.39,-155.54 342.56,-345.55 -0.82,-190.02 -155.53,-343.4 -345.55,-342.57z"/>
    <path id="_183" class="fil163" d="M303.44 -187.54c189.51,-0.83 343.79,152.13 344.62,341.63 0.82,189.5 -152.14,343.79 -341.64,344.61 -189.5,0.82 -343.79,-152.13 -344.61,-341.63 -0.82,-189.5 152.13,-343.79 341.63,-344.61zm0 -1.88c-190.54,0.83 -344.33,155.96 -343.5,346.5 0.82,190.53 155.95,344.32 346.49,343.5 190.54,-0.83 344.33,-155.96 343.5,-346.5 -0.83,-190.54 -155.96,-344.33 -346.49,-343.5z"/>
   </g>
  </g>
 </g>
</svg>
