<?xml version="1.0" encoding="UTF-8"?>
<!DOCTYPE svg PUBLIC "-//W3C//DTD SVG 1.1//EN" "http://www.w3.org/Graphics/SVG/1.1/DTD/svg11.dtd">
<!-- Creator: CorelDRAW 2021 (64-Bit) -->
<svg xmlns="http://www.w3.org/2000/svg" xml:space="preserve" width="512px" height="512px" version="1.1" style="shape-rendering:geometricPrecision; text-rendering:geometricPrecision; image-rendering:optimizeQuality; fill-rule:evenodd; clip-rule:evenodd"
viewBox="0 0 89.59 89.59"
 xmlns:xlink="http://www.w3.org/1999/xlink"
 xmlns:xodm="http://www.corel.com/coreldraw/odm/2003">
 <defs>
  <style type="text/css">
   <![CDATA[
    .fil0 {fill:none}
    .fil1 {fill:white}
   ]]>
  </style>
 </defs>
 <g id="Layer_x0020_1">
  <metadata id="CorelCorpID_0Corel-Layer"/>
  <g id="_2846120652128">
   <polygon class="fil0" points="0,89.59 89.59,89.59 89.59,0 0,0 "/>
   <g>
    <path class="fil1" d="M23.09 28.23c-2.44,-0.6 -2.29,-5.3 -6.87,-6.21 -2.34,1.65 -3.86,5.77 -3.55,9.36 0.46,5.34 4.34,5.29 4.36,8.1l-1.07 0.06c-1.41,-0.44 -0.83,-1.21 -3.14,-2.36 -1.84,-0.92 -3.6,-1.28 -5.49,-0.76 -1.25,4.48 -0.03,11.1 5.23,13.46 2.72,1.23 3.64,-0.13 3.49,2.65 -3.28,-1 -4.88,-1.75 -8.14,-0.41 -0.36,4.17 1.99,10.01 6.98,11.58 2.31,0.73 3.78,0.52 6.19,0.36 -0.75,0.65 -0.07,0.23 -1.14,0.67 -0.25,0.11 -0.86,0.28 -1.13,0.35 -1.29,0.36 -0.82,0.06 -2.05,0.63 -0.96,0.45 -2.84,1.38 -3.04,2.4 0.21,2.32 4.12,5.34 6.13,6.34 4.23,2.09 6.98,-0.01 10.23,-1.25 2.19,0.89 3.69,2.85 6.17,1.84 2.8,-2.25 -4.08,-4.62 -6.73,-6.54 -2.87,-2.08 -4.89,-4.44 -6.96,-8.28 -4.97,-9.23 -4,-20.53 2.31,-28.88 3.67,-4.85 10.01,-3.64 10.45,-12.34 0.5,-9.6 -9.68,-2.25 -11.45,2.09 -1.2,2.93 -0.12,4.48 -0.78,7.14zm-4.86 40.34c0.2,0.46 -0.09,1.7 3.34,2.8 2.1,0.67 3.47,0.47 4.75,-0.72 -2.38,-2.4 -4.13,-2.26 -8.09,-2.08zm0.3 -33.71c0.57,-2.01 1.16,-4.53 0.06,-6.62 -0.8,-1.54 -0.78,-1.04 -1.7,-1.55 -0.7,2.4 -1.84,6.58 1.64,8.17zm8.12 -9.62c3.37,-1.22 4.81,-2.56 5.1,-6.66 -1.42,0.21 -2.67,1.01 -3.51,1.8 -1.44,1.38 -1.39,2.48 -1.59,4.86zm-11.47 21.8c-0.29,-3.6 -1.44,-6.71 -4.79,-6.75 0.17,1.62 0.42,3.24 1.19,4.59 0.91,1.62 1.78,1.48 3.6,2.16zm3.01 13.69c-1.01,-3.23 -2.37,-5.37 -6.41,-5.55 1.44,3.75 1.36,5.06 6.41,5.55z"/>
    <path class="fil1" d="M53.47 75.03c2.95,1.04 3.89,-1.26 5.95,-1.69 1.33,-0.28 3.27,1.77 6.24,1.91 4.67,0.22 10.05,-3.96 10.25,-7.31 -0.71,-0.94 -1.99,-1.8 -2.97,-2.24l-3.2 -0.95c-0.97,-0.44 -0.4,-0.05 -1.11,-0.69 4.33,0.19 7.68,-0.1 9.94,-2.58 4.35,-4.79 2.96,-10.23 2.56,-9.44 -0.09,0.16 0,-0.32 -1.29,-0.55 -2.03,-0.37 -4.41,0.46 -6.24,1.04 -0.02,-3.67 4.11,-0.8 7.16,-5.48 1.81,-2.77 2.35,-6.89 1.67,-10.69 -5.45,-1.2 -7.18,2.93 -9.03,3.2l-0.71 -0.08c-0.02,-2.55 -0.3,0.41 2.53,-3.51 4.5,-6.23 -0.29,-13.71 -1.73,-13.95 -4.36,0.94 -3.92,3.49 -6.41,6.55 -1.91,-2.83 1.63,-9.95 -8.04,-13.58 -3.01,-1.13 -4.2,-1.32 -4.59,2.13 -0.6,5.14 2.36,8.6 5.03,10.32 2,1.28 2.93,1.01 4.56,2.85 6.62,7.52 8.31,19.92 3.45,29.36 -1.76,3.42 -4.59,6.88 -6.75,8.49 -5.85,4.35 -9.17,3.53 -7.27,6.89zm20.94 -27.87c3.51,-1.16 4.63,-2.38 4.85,-6.93 -3.4,0.95 -4.32,3.29 -4.85,6.93zm-11.14 23.44c0.39,0.4 0.48,0.83 1.93,1.08 1.02,0.17 1.67,0.1 2.61,-0.14 1.88,-0.48 2.93,-1.36 3.66,-2.79 -4.08,-0.55 -5.67,-0.12 -8.2,1.85zm7.23 -39.6c0,4.48 0.89,3.51 1.32,3.93 1.26,-2.08 2.91,-4.91 0.74,-8.15 -1.32,0.99 -2.06,2.38 -2.06,4.22zm1.14 29.67c3.91,-0.19 5.63,-1.96 6.17,-5.6 -1.99,0.24 -2.63,0.49 -3.92,1.72 -1.34,1.28 -1.82,1.89 -2.25,3.88zm-8.58 -35.43c-0.33,-4.38 -1.56,-5.83 -5.12,-6.79 0.32,4.12 1.87,5.62 5.12,6.79z"/>
    <path class="fil1" d="M47.51 46.7c-0.6,0.95 -0.91,1.12 -1.55,1.97 -3.34,-1.73 -11.86,-13.59 -14.79,-12.65 -4.6,2.81 1.87,18.24 7.33,16.8 1.39,-3.99 -3.43,-2.99 -4.93,-10.59 1.23,0.49 0.69,0.22 1.52,0.82l5.57 5.53c0.37,0.36 0.88,0.81 1.16,1.15 0.93,1.13 0.42,0.25 0.97,1.59 -2.47,4.21 -7.74,5.91 -7.69,9.87 4.11,1.72 7.08,-5.35 11,-7.37 1.23,1.79 2.88,3.1 4.48,4.7 1.59,1.58 2.73,4.23 5.14,2.27 0.31,-2.96 -5.76,-7.55 -7.5,-9.47l1.72 -1.94c5.5,0.8 3.59,2.59 11.51,-5.53 1.58,-1.63 1.59,-1.89 0.03,-3.44 -3.77,0.11 -5.03,4.98 -8.31,6.34 -1.67,-0.43 -2.78,-1.44 -3.12,-3.29 0.11,-2.61 6.97,-5.79 6.14,-8.13 -1.3,-3.71 -6.87,3.04 -8.09,4.45 -2.74,3.15 -1.53,3.8 -0.59,6.92z"/>
   </g>
  </g>
 </g>
</svg>
